<svg width="70" height="70" viewBox="0 0 70 70" fill="none" xmlns="http://www.w3.org/2000/svg">
<mask id="mask0_205_341" style="mask-type:alpha" maskUnits="userSpaceOnUse" x="0" y="0" width="70" height="70">
<circle cx="35" cy="35" r="35" fill="white"/>
</mask>
<g mask="url(#mask0_205_341)">
</g>
<g clip-path="url(#clip0_205_341)">
<path d="M33.82 59.39C29.1095 59.384 24.5065 57.982 20.5924 55.3613C16.6783 52.7405 13.6287 49.0185 11.8289 44.6655C10.029 40.3124 9.55963 35.5236 10.48 30.9039C11.4004 26.2842 13.6693 22.0409 17 18.7101C20.5662 15.1276 25.1833 12.7775 30.1784 12.0022C35.1735 11.2269 40.2857 12.067 44.77 14.4001C44.867 14.4488 44.9534 14.5163 45.0241 14.5986C45.0948 14.681 45.1485 14.7766 45.1819 14.8798C45.2154 14.9831 45.2281 15.092 45.2192 15.2001C45.2103 15.3083 45.18 15.4137 45.13 15.5101C45.0803 15.6087 45.0115 15.6964 44.9274 15.7681C44.8434 15.8398 44.7459 15.894 44.6407 15.9275C44.5354 15.9611 44.4246 15.9732 44.3145 15.9634C44.2045 15.9535 44.0976 15.9218 44 15.87C39.3012 13.4383 33.8876 12.7672 28.7372 13.9779C23.5868 15.1886 19.0391 18.2014 15.9158 22.4718C12.7924 26.7423 11.2992 31.989 11.706 37.2642C12.1128 42.5393 14.3927 47.4951 18.1338 51.2362C21.875 54.9774 26.8308 57.2573 32.1059 57.664C37.381 58.0708 42.6277 56.5777 46.8982 53.4543C51.1687 50.3309 54.1814 45.7833 55.3921 40.6329C56.6028 35.4825 55.9317 30.0689 53.5 25.37C53.4499 25.2729 53.4194 25.1668 53.4103 25.0579C53.4013 24.949 53.4139 24.8393 53.4473 24.7353C53.4808 24.6312 53.5344 24.5348 53.6053 24.4515C53.6761 24.3682 53.7627 24.2998 53.86 24.25C53.9564 24.2001 54.0617 24.1698 54.1699 24.1609C54.2781 24.152 54.387 24.1646 54.4902 24.1981C54.5935 24.2316 54.6891 24.2853 54.7714 24.356C54.8538 24.4267 54.9213 24.513 54.97 24.61C56.8487 28.2414 57.7615 32.295 57.6206 36.3811C57.4798 40.4672 56.29 44.4483 54.1657 47.9417C52.0413 51.435 49.054 54.323 45.4908 56.328C41.9276 58.3329 37.9085 59.3874 33.82 59.39V59.39Z" fill="white"/>
<path d="M33.82 54.31C30.9256 54.312 28.07 53.6442 25.4767 52.3589C22.8833 51.0736 20.6225 49.2056 18.8712 46.9012C17.1199 44.5967 15.9255 41.9183 15.3816 39.0755C14.8377 36.2326 14.959 33.3025 15.7359 30.5143C16.5128 27.7261 17.9244 25.1556 19.8601 23.0037C21.7958 20.8518 24.2032 19.177 26.8939 18.1104C29.5846 17.0437 32.4856 16.6142 35.3699 16.8552C38.2543 17.0963 41.0437 18.0015 43.52 19.5C43.7083 19.6141 43.8436 19.7983 43.8961 20.012C43.9486 20.2258 43.9141 20.4517 43.8 20.64C43.686 20.8283 43.5018 20.9636 43.288 21.0161C43.0742 21.0686 42.8483 21.0341 42.66 20.92C39.0841 18.7648 34.843 17.9932 30.7372 18.7508C26.6314 19.5084 22.9449 21.7427 20.3737 25.0321C17.8024 28.3216 16.5242 32.4384 16.7804 36.6057C17.0366 40.7729 18.8094 44.7023 21.7642 47.652C24.719 50.6017 28.6514 52.3677 32.819 52.6167C36.9867 52.8657 41.1014 51.5804 44.3864 49.0034C47.6713 46.4265 49.8993 42.7362 50.6498 38.6291C51.4003 34.522 50.6214 30.2822 48.46 26.71C48.4024 26.618 48.3639 26.5152 48.3468 26.408C48.3297 26.3007 48.3344 26.1911 48.3605 26.0857C48.3866 25.9803 48.4337 25.8812 48.4989 25.7943C48.5641 25.7074 48.6461 25.6346 48.74 25.58C48.8325 25.5238 48.9352 25.4864 49.0421 25.4701C49.1491 25.4537 49.2583 25.4587 49.3633 25.4847C49.4684 25.5107 49.5672 25.5573 49.6542 25.6217C49.7411 25.6861 49.8145 25.7671 49.87 25.86C51.5873 28.7007 52.5196 31.9464 52.5718 35.2655C52.6239 38.5845 51.7941 41.8579 50.1669 44.7511C48.5398 47.6444 46.1737 50.0538 43.3104 51.7333C40.4472 53.4127 37.1894 54.3019 33.87 54.31H33.82Z" fill="white"/>
<path d="M24.27 26.9401C24.1623 26.9401 24.0556 26.919 23.9561 26.8778C23.8566 26.8366 23.7662 26.7762 23.69 26.7001C23.612 26.6229 23.5501 26.531 23.5078 26.4298C23.4655 26.3285 23.4438 26.2198 23.4438 26.1101C23.4438 26.0004 23.4655 25.8917 23.5078 25.7904C23.5501 25.6892 23.612 25.5973 23.69 25.5201C26.2932 22.9071 29.8121 21.4113 33.5 21.3501C33.7177 21.35 33.9269 21.4343 34.0836 21.5854C34.2403 21.7365 34.3322 21.9426 34.34 22.1601C34.3427 22.2691 34.3238 22.3776 34.2845 22.4793C34.2453 22.581 34.1863 22.674 34.1111 22.7529C34.0359 22.8319 33.9459 22.8952 33.8461 22.9393C33.7464 22.9835 33.639 23.0075 33.53 23.0101C30.2695 23.0631 27.1586 24.3871 24.86 26.7001C24.7826 26.7774 24.6906 26.8385 24.5893 26.8797C24.4879 26.9209 24.3794 26.9415 24.27 26.9401V26.9401Z" fill="white"/>
<path d="M20.7 39.55C20.5152 39.5505 20.3356 39.4886 20.1904 39.3742C20.0452 39.2599 19.9428 39.0998 19.9 38.92C19.3247 36.5491 19.3714 34.0699 20.0353 31.7223C20.6993 29.3747 21.9582 27.2384 23.69 25.52C23.8455 25.3655 24.0558 25.2788 24.275 25.2788C24.4942 25.2788 24.7045 25.3655 24.86 25.52C25.0128 25.6784 25.0981 25.8899 25.0981 26.11C25.0981 26.3301 25.0128 26.5416 24.86 26.7C23.3304 28.2166 22.2183 30.1025 21.6314 32.1751C21.0445 34.2476 21.0027 36.4366 21.51 38.53C21.5613 38.7435 21.5258 38.9686 21.4115 39.156C21.2972 39.3434 21.1133 39.4779 20.9 39.53C20.8347 39.5466 20.7673 39.5533 20.7 39.55Z" fill="white"/>
<path d="M33.67 49.8601C31.8109 49.856 29.9709 49.4856 28.2551 48.7701C26.5392 48.0546 24.9812 47.008 23.67 45.6901C23.5348 45.5312 23.4645 45.3273 23.4728 45.1189C23.4812 44.9105 23.5678 44.7129 23.7153 44.5654C23.8628 44.4179 24.0604 44.3313 24.2688 44.3229C24.4772 44.3145 24.6811 44.3849 24.84 44.5201C27.1792 46.8638 30.3487 48.1898 33.66 48.2101C33.776 48.1973 33.8933 48.2091 34.0044 48.2447C34.1155 48.2804 34.2179 48.339 34.3048 48.4169C34.3917 48.4947 34.4612 48.59 34.5088 48.6965C34.5564 48.8031 34.581 48.9184 34.581 49.0351C34.581 49.1518 34.5564 49.2671 34.5088 49.3737C34.4612 49.4802 34.3917 49.5755 34.3048 49.6533C34.2179 49.7312 34.1155 49.7898 34.0044 49.8254C33.8933 49.8611 33.776 49.8729 33.66 49.8601H33.67Z" fill="white"/>
<path d="M43.45 45.74C43.3429 45.7419 43.2365 45.7225 43.137 45.6831C43.0374 45.6436 42.9467 45.5848 42.87 45.51C42.7923 45.4337 42.7306 45.3426 42.6884 45.2422C42.6463 45.1417 42.6246 45.0339 42.6246 44.925C42.6246 44.8161 42.6463 44.7082 42.6884 44.6078C42.7306 44.5073 42.7923 44.4163 42.87 44.34C44.7944 42.341 46.0052 39.7628 46.3144 37.0053C46.6235 34.2479 46.0139 31.4655 44.58 29.09C44.4793 28.9087 44.4502 28.6962 44.4983 28.4945C44.5464 28.2927 44.6683 28.1163 44.84 28C45.029 27.8886 45.254 27.8555 45.467 27.9078C45.6801 27.9601 45.8642 28.0937 45.98 28.28C47.6004 30.969 48.2894 34.1171 47.9405 37.2371C47.5916 40.3572 46.2243 43.2753 44.05 45.54C43.8842 45.6832 43.6686 45.7551 43.45 45.74Z" fill="white"/>
<path d="M33.82 40.46C32.8514 40.46 31.9046 40.1731 31.099 39.6353C30.2934 39.0975 29.6653 38.333 29.294 37.4384C28.9227 36.5439 28.8248 35.5593 29.0128 34.6091C29.2007 33.659 29.6661 32.7858 30.35 32.1C30.7228 31.7246 31.1554 31.4137 31.63 31.18C31.7281 31.1207 31.8374 31.0824 31.951 31.0674C32.0646 31.0524 32.18 31.0612 32.2901 31.093C32.4002 31.1249 32.5025 31.1792 32.5905 31.2525C32.6786 31.3259 32.7505 31.4166 32.8017 31.5191C32.853 31.6216 32.8824 31.7336 32.8883 31.848C32.8941 31.9625 32.8762 32.0769 32.8356 32.1841C32.7951 32.2912 32.7328 32.3888 32.6526 32.4707C32.5725 32.5527 32.4763 32.6171 32.37 32.66C32.0569 32.8182 31.7702 33.024 31.52 33.27C30.913 33.8775 30.5721 34.7012 30.5721 35.56C30.5721 36.4188 30.913 37.2424 31.52 37.85C32.1293 38.4576 32.9546 38.7988 33.815 38.7988C34.6754 38.7988 35.5008 38.4576 36.11 37.85C36.3907 37.5589 36.6176 37.2203 36.78 36.85C36.8189 36.7437 36.879 36.6465 36.9568 36.5644C37.0346 36.4823 37.1283 36.4169 37.2323 36.3723C37.3362 36.3277 37.4482 36.3048 37.5613 36.305C37.6745 36.3053 37.7863 36.3286 37.8901 36.3737C37.9939 36.4188 38.0873 36.4845 38.1647 36.567C38.2421 36.6495 38.3019 36.747 38.3403 36.8534C38.3787 36.9598 38.3949 37.0729 38.388 37.1858C38.381 37.2987 38.3511 37.409 38.3 37.51C38.0604 38.0635 37.7215 38.5685 37.3 39C36.8463 39.4626 36.3047 39.8301 35.7072 40.0808C35.1096 40.3315 34.468 40.4604 33.82 40.46V40.46Z" fill="white"/>
<path d="M39 31.25C38.8378 31.2473 38.68 31.1972 38.546 31.1058C38.412 31.0144 38.3077 30.8858 38.246 30.7358C38.1843 30.5858 38.1679 30.421 38.1988 30.2618C38.2297 30.1026 38.3066 29.956 38.42 29.84L53 15.21C53.1555 15.0555 53.3658 14.9688 53.585 14.9688C53.8042 14.9688 54.0145 15.0555 54.17 15.21C54.2477 15.2863 54.3094 15.3773 54.3515 15.4778C54.3937 15.5782 54.4154 15.686 54.4154 15.795C54.4154 15.9039 54.3937 16.0117 54.3515 16.1122C54.3094 16.2126 54.2477 16.3036 54.17 16.38L39.54 31C39.3965 31.1464 39.2045 31.2353 39 31.25V31.25Z" fill="white"/>
<path d="M34 36.25H33.9C33.6831 36.2249 33.4848 36.1152 33.3482 35.9449C33.2115 35.7745 33.1475 35.5572 33.17 35.34L33.89 28.87C33.9044 28.7153 33.9629 28.568 34.0587 28.4457C34.1544 28.3233 34.2833 28.2311 34.43 28.18C34.5775 28.1278 34.7368 28.1189 34.8892 28.1544C35.0416 28.1898 35.1807 28.2681 35.29 28.38L36.91 30C37.0645 30.1555 37.1512 30.3658 37.1512 30.585C37.1512 30.8042 37.0645 31.0145 36.91 31.17C36.8337 31.2477 36.7426 31.3094 36.6422 31.3516C36.5418 31.3937 36.4339 31.4154 36.325 31.4154C36.2161 31.4154 36.1083 31.3937 36.0078 31.3516C35.9074 31.3094 35.8163 31.2477 35.74 31.17L35.3 30.74L34.78 35.49C34.7635 35.6894 34.6754 35.8762 34.5321 36.0158C34.3888 36.1555 34.1998 36.2386 34 36.25Z" fill="white"/>
<path d="M33.82 45.36C32.4426 45.3565 31.0814 45.0627 29.8252 44.4978C28.5689 43.9329 27.4459 43.1095 26.5293 42.0813C25.6128 41.0531 24.9232 39.8433 24.5057 38.5307C24.0881 37.2181 23.952 35.8322 24.1061 34.4634C24.2603 33.0947 24.7012 31.7738 25.4002 30.5869C26.0992 29.4 27.0405 28.3738 28.1628 27.5752C29.285 26.7766 30.5631 26.2236 31.9135 25.9522C33.2639 25.6807 34.6563 25.697 36 26C36.1086 26.0214 36.2118 26.0643 36.3036 26.1262C36.3953 26.188 36.4738 26.2677 36.5343 26.3603C36.5949 26.453 36.6363 26.5568 36.6561 26.6657C36.6759 26.7746 36.6738 26.8863 36.6498 26.9944C36.6258 27.1024 36.5804 27.2046 36.5163 27.2948C36.4522 27.3851 36.3707 27.4616 36.2767 27.5199C36.1826 27.5782 36.0778 27.6171 35.9684 27.6342C35.8591 27.6514 35.7474 27.6466 35.64 27.62C33.9182 27.2354 32.1181 27.4198 30.5101 28.1457C28.9021 28.8715 27.5731 30.0995 26.7226 31.6452C25.8722 33.1909 25.5463 34.9709 25.7938 36.7177C26.0414 38.4644 26.8491 40.0837 28.0956 41.3322C29.3421 42.5807 30.9601 43.391 32.7064 43.6414C34.4528 43.8918 36.2333 43.5688 37.7803 42.7208C39.3274 41.8729 40.5576 40.5458 41.286 38.939C42.0145 37.3322 42.2018 35.5324 41.82 33.81C41.7869 33.6005 41.8353 33.3863 41.9552 33.2114C42.075 33.0365 42.2573 32.9141 42.4646 32.8693C42.6718 32.8245 42.8884 32.8608 43.0698 32.9706C43.2512 33.0804 43.3836 33.2555 43.44 33.46C43.7557 34.8917 43.7461 36.3761 43.4119 37.8036C43.0777 39.2311 42.4275 40.5655 41.5092 41.7084C40.5909 42.8513 39.4278 43.7736 38.1057 44.4073C36.7836 45.041 35.3361 45.37 33.87 45.37L33.82 45.36Z" fill="white"/>
<path d="M34 36.25C33.7937 36.2415 33.598 36.1565 33.4511 36.0115C33.3041 35.8665 33.2164 35.672 33.2052 35.4659C33.1939 35.2597 33.2599 35.0568 33.3902 34.8967C33.5206 34.7366 33.7059 34.6308 33.91 34.6L38.67 34.07L38.23 33.64C38.0773 33.4815 37.9919 33.27 37.9919 33.05C37.9919 32.8299 38.0773 32.6184 38.23 32.46C38.3855 32.3055 38.5958 32.2188 38.815 32.2188C39.0342 32.2188 39.2445 32.3055 39.4 32.46L41 34.12C41.1101 34.2309 41.1867 34.3707 41.2209 34.5232C41.2551 34.6757 41.2455 34.8348 41.1933 34.9821C41.141 35.1295 41.0482 35.2591 40.9256 35.356C40.803 35.4529 40.6554 35.5132 40.5 35.53L34.04 36.24L34 36.25Z" fill="white"/>
<path d="M50.72 19.4801C50.5312 19.48 50.348 19.4156 50.2008 19.2974C50.0535 19.1792 49.951 19.0144 49.91 18.8301L48.81 13.8301C48.7681 13.6175 48.811 13.397 48.9295 13.2156C49.048 13.0342 49.2328 12.9064 49.4443 12.8594C49.6558 12.8124 49.8773 12.8499 50.0615 12.964C50.2457 13.0782 50.3779 13.2598 50.43 13.4701L51.53 18.4701C51.5551 18.5771 51.5586 18.6881 51.5405 18.7966C51.5223 18.905 51.4828 19.0088 51.4241 19.1018C51.3655 19.1949 51.289 19.2753 51.199 19.3386C51.1091 19.4018 51.0074 19.4465 50.9 19.4701L50.72 19.4801Z" fill="white"/>
<path d="M53.58 16.6299C53.3939 16.6309 53.2129 16.5693 53.066 16.4551C52.9191 16.3408 52.8148 16.1805 52.77 15.9999L51.66 10.9999C51.6121 10.7838 51.6514 10.5576 51.7694 10.3704C51.8873 10.1831 52.0744 10.05 52.29 9.99991C52.3971 9.97483 52.508 9.97127 52.6165 9.98944C52.7249 10.0076 52.8287 10.0472 52.9217 10.1058C53.0148 10.1644 53.0953 10.2409 53.1585 10.3309C53.2217 10.4209 53.2664 10.5225 53.29 10.6299L54.4 15.6299C54.4251 15.737 54.4286 15.848 54.4105 15.9564C54.3923 16.0649 54.3527 16.1686 54.2941 16.2617C54.2355 16.3547 54.159 16.4352 54.069 16.4984C53.979 16.5616 53.8774 16.6063 53.77 16.6299H53.58Z" fill="white"/>
<path d="M55.69 20.5799C55.6304 20.5898 55.5696 20.5898 55.51 20.5799L50.51 19.4799C50.2997 19.4278 50.1181 19.2956 50.004 19.1114C49.8899 18.9272 49.8523 18.7057 49.8993 18.4942C49.9463 18.2827 50.0741 18.0979 50.2555 17.9794C50.4369 17.8609 50.6574 17.818 50.87 17.8599L55.87 18.9699C56.0844 18.9959 56.2799 19.1054 56.4141 19.2747C56.5482 19.4439 56.6101 19.6593 56.5864 19.874C56.5627 20.0886 56.4553 20.2853 56.2874 20.4212C56.1196 20.5571 55.9049 20.6213 55.69 20.5999V20.5799Z" fill="white"/>
<path d="M58.55 17.7301H58.37L53.37 16.6301C53.1538 16.5783 52.9671 16.4429 52.8508 16.2535C52.7345 16.0641 52.6983 15.8362 52.75 15.6201C52.8017 15.4039 52.9372 15.2172 53.1266 15.1009C53.316 14.9846 53.5438 14.9483 53.76 15.0001L58.76 16.1001C58.8665 16.1248 58.9671 16.1703 59.0559 16.234C59.1448 16.2977 59.2202 16.3783 59.2778 16.4712C59.3354 16.5641 59.3741 16.6675 59.3916 16.7754C59.4092 16.8834 59.4052 16.9937 59.38 17.1001C59.3379 17.2859 59.2316 17.451 59.0797 17.5662C58.9279 17.6815 58.7404 17.7395 58.55 17.7301V17.7301Z" fill="white"/>
</g>
<defs>
<clipPath id="clip0_205_341">
<rect width="49.37" height="49.39" fill="white" transform="translate(10 10)"/>
</clipPath>
</defs>
</svg>
