<svg width="70" height="70" viewBox="0 0 70 70" fill="none" xmlns="http://www.w3.org/2000/svg">
<mask id="mask0_205_339" style="mask-type:alpha" maskUnits="userSpaceOnUse" x="0" y="0" width="70" height="70">
<circle cx="35" cy="35" r="35" fill="url(#paint0_linear_205_339)"/>
</mask>
<g mask="url(#mask0_205_339)">
</g>
<g clip-path="url(#clip0_205_339)">
<path d="M29.2 39.3801C28.9799 39.3801 28.7688 39.2926 28.6131 39.137C28.4574 38.9813 28.37 38.7702 28.37 38.5501V34.0001C28.4065 33.8107 28.5078 33.6399 28.6565 33.5171C28.8053 33.3943 28.9921 33.3271 29.185 33.3271C29.3779 33.3271 29.5647 33.3943 29.7134 33.5171C29.8622 33.6399 29.9635 33.8107 30 34.0001V38.5201C30.004 38.6291 29.9865 38.7378 29.9484 38.8401C29.9104 38.9423 29.8526 39.036 29.7783 39.1159C29.704 39.1958 29.6147 39.2602 29.5154 39.3055C29.4162 39.3509 29.309 39.3762 29.2 39.3801V39.3801Z" fill="white"/>
<path d="M32.76 43.1099C32.5399 43.1099 32.3287 43.0225 32.1731 42.8668C32.0174 42.7112 31.93 42.5001 31.93 42.2799V33.9999C31.93 33.7798 32.0174 33.5687 32.1731 33.413C32.3287 33.2574 32.5399 33.1699 32.76 33.1699C32.9801 33.1699 33.1912 33.2574 33.3469 33.413C33.5025 33.5687 33.59 33.7798 33.59 33.9999V42.2499C33.594 42.3614 33.5755 42.4726 33.5356 42.5768C33.4957 42.681 33.4352 42.776 33.3578 42.8563C33.2803 42.9366 33.1874 43.0004 33.0847 43.044C32.982 43.0876 32.8716 43.11 32.76 43.1099Z" fill="white"/>
<path d="M36.32 43.1099C36.1016 43.1073 35.893 43.0187 35.7396 42.8633C35.5861 42.7079 35.5 42.4983 35.5 42.2799V34.0799C35.4872 33.9639 35.499 33.8466 35.5346 33.7355C35.5703 33.6244 35.6289 33.522 35.7068 33.4351C35.7846 33.3482 35.8799 33.2787 35.9864 33.2311C36.093 33.1835 36.2083 33.1589 36.325 33.1589C36.4417 33.1589 36.557 33.1835 36.6636 33.2311C36.7701 33.2787 36.8654 33.3482 36.9432 33.4351C37.0211 33.522 37.0797 33.6244 37.1153 33.7355C37.151 33.8466 37.1628 33.9639 37.15 34.0799V42.2799C37.15 42.5 37.0625 42.7111 36.9069 42.8668C36.7512 43.0225 36.5401 43.1099 36.32 43.1099V43.1099Z" fill="white"/>
<path d="M39.89 35.58C39.6716 35.58 39.462 35.494 39.3066 35.3405C39.1512 35.187 39.0626 34.9784 39.06 34.76V27.84C39.06 27.6199 39.1474 27.4088 39.3031 27.2531C39.4588 27.0975 39.6699 27.01 39.89 27.01C40.1101 27.01 40.3212 27.0975 40.4769 27.2531C40.6326 27.4088 40.72 27.6199 40.72 27.84V34.76C40.7174 34.9784 40.6288 35.187 40.4734 35.3405C40.318 35.494 40.1084 35.58 39.89 35.58V35.58Z" fill="white"/>
<path d="M34.54 46.59C34.387 46.6049 34.233 46.6049 34.08 46.59C33.6058 46.4912 33.1682 46.2633 32.8153 45.9316C32.4624 45.5999 32.2079 45.1771 32.08 44.71C31.6752 44.8903 31.2312 44.9645 30.7897 44.9257C30.3483 44.8869 29.924 44.7364 29.5569 44.4883C29.1897 44.2402 28.8918 43.9027 28.6911 43.5076C28.4905 43.1125 28.3937 42.6728 28.41 42.23V41C27.9587 41.1771 27.4672 41.2256 26.99 41.14C26.3779 41.0181 25.8282 40.6849 25.4369 40.1986C25.0457 39.7123 24.838 39.104 24.85 38.48V26.91C24.847 25.9567 24.9921 25.0088 25.28 24.1L25.57 23C26.0773 21.3817 26.3369 19.696 26.34 18V16.52C25.8925 16.2675 25.5192 15.9017 25.2577 15.4594C24.9962 15.0171 24.8556 14.5138 24.85 14C24.85 13.2044 25.1661 12.4413 25.7287 11.8787C26.2913 11.3161 27.0543 11 27.85 11H39.23C39.866 11.0283 40.4766 11.2581 40.9733 11.6564C41.4701 12.0546 41.8272 12.6006 41.9931 13.2152C42.1591 13.8299 42.1251 14.4814 41.8962 15.0755C41.6674 15.6696 41.2554 16.1755 40.72 16.52V18.65C40.7189 19.7448 41.1335 20.7992 41.88 21.6L43.61 23.46C44.6963 24.6204 45.3004 26.1505 45.3 27.74V34.64C45.3097 35.4348 45.0233 36.2048 44.4964 36.8001C43.9696 37.3953 43.2401 37.7731 42.45 37.86C41.8513 37.9195 41.2485 37.7975 40.72 37.51V42.19C40.7316 42.8154 40.5224 43.4249 40.1292 43.9114C39.736 44.3978 39.1839 44.7302 38.57 44.85C38.06 44.9424 37.534 44.8797 37.06 44.67C36.9222 45.1886 36.6291 45.6527 36.22 46C35.7473 46.389 35.1521 46.5981 34.54 46.59V46.59ZM33.59 42.28V43.88C33.5838 44.1098 33.6571 44.3347 33.7973 44.5168C33.9375 44.699 34.1363 44.8272 34.36 44.88C34.5006 44.9041 34.6447 44.8978 34.7827 44.8616C34.9207 44.8254 35.0493 44.76 35.16 44.67C35.3561 44.4993 35.478 44.259 35.5 44V42.3C35.5224 42.0969 35.6189 41.9091 35.7712 41.7727C35.9234 41.6364 36.1206 41.561 36.325 41.561C36.5294 41.561 36.7266 41.6364 36.8788 41.7727C37.031 41.9091 37.1276 42.0969 37.15 42.3C37.1569 42.4389 37.1928 42.5748 37.2552 42.699C37.3176 42.8233 37.4053 42.9331 37.5126 43.0216C37.6198 43.11 37.7444 43.1751 37.8782 43.2127C38.0121 43.2504 38.1523 43.2596 38.29 43.24C38.5137 43.1872 38.7124 43.059 38.8527 42.8768C38.9929 42.6947 39.0661 42.4698 39.06 42.24V34.76C39.06 34.5399 39.1474 34.3288 39.3031 34.1731C39.4587 34.0174 39.6699 33.93 39.89 33.93C40.1101 33.93 40.3212 34.0174 40.4769 34.1731C40.6325 34.3288 40.72 34.5399 40.72 34.76C40.7179 34.9615 40.7588 35.1611 40.8398 35.3456C40.9208 35.5301 41.0402 35.6952 41.19 35.83C41.3391 35.969 41.5161 36.0748 41.7092 36.1403C41.9022 36.2058 42.107 36.2296 42.31 36.21C42.6872 36.1605 43.0324 35.9722 43.2783 35.682C43.5242 35.3917 43.6532 35.0202 43.64 34.64V27.74C43.6411 26.5707 43.1978 25.4448 42.4 24.59L40.66 22.73C39.6313 21.6204 39.0598 20.1631 39.06 18.65V16C39.0596 15.8251 39.1145 15.6545 39.2169 15.5126C39.3193 15.3707 39.4638 15.2648 39.63 15.21C39.927 15.1165 40.1806 14.9195 40.3447 14.6548C40.5087 14.3901 40.5723 14.0753 40.5239 13.7677C40.4754 13.4601 40.3182 13.1801 40.0807 12.9787C39.8433 12.7772 39.5414 12.6677 39.23 12.67H27.82C27.5086 12.6677 27.2067 12.7772 26.9692 12.9787C26.7318 13.1801 26.5745 13.4601 26.5261 13.7677C26.4776 14.0753 26.5412 14.3901 26.7053 14.6548C26.8693 14.9195 27.1229 15.1165 27.42 15.21C27.588 15.2631 27.7348 15.3682 27.839 15.5103C27.9433 15.6523 27.9997 15.8238 28 16V18C27.9997 19.8711 27.7199 21.7316 27.17 23.52L26.83 24.61C26.5938 25.3605 26.4757 26.1432 26.48 26.93V38.46C26.4738 38.6898 26.547 38.9147 26.6873 39.0968C26.8275 39.279 27.0263 39.4072 27.25 39.46C27.3869 39.4781 27.526 39.4677 27.6587 39.4294C27.7914 39.3911 27.9147 39.3257 28.0208 39.2374C28.127 39.1491 28.2137 39.0398 28.2755 38.9163C28.3373 38.7928 28.3729 38.6579 28.38 38.52C28.38 38.2999 28.4674 38.0888 28.6231 37.9331C28.7787 37.7774 28.9898 37.69 29.21 37.69C29.4301 37.69 29.6412 37.7774 29.7969 37.9331C29.9525 38.0888 30.04 38.2999 30.04 38.52V42.16C30.0338 42.3898 30.107 42.6147 30.2473 42.7968C30.3875 42.979 30.5862 43.1072 30.81 43.16C30.949 43.1867 31.0922 43.1817 31.229 43.1454C31.3658 43.109 31.4926 43.0422 31.6 42.95C31.7077 42.8616 31.7942 42.7501 31.8531 42.6237C31.9119 42.4974 31.9416 42.3594 31.94 42.22C31.94 41.9999 32.0274 41.7888 32.1831 41.6331C32.3387 41.4774 32.5499 41.39 32.77 41.39C32.9901 41.39 33.2012 41.4774 33.3569 41.6331C33.5125 41.7888 33.6 41.9999 33.6 42.22L33.59 42.28Z" fill="white"/>
<path d="M33.12 16.8199H27.12C26.8998 16.8199 26.6887 16.7325 26.5331 16.5768C26.3774 16.4212 26.29 16.21 26.29 15.9899C26.29 15.7698 26.3774 15.5587 26.5331 15.403C26.6887 15.2474 26.8998 15.1599 27.12 15.1599H33.12C33.3401 15.1599 33.5512 15.2474 33.7069 15.403C33.8625 15.5587 33.95 15.7698 33.95 15.9899C33.95 16.21 33.8625 16.4212 33.7069 16.5768C33.5512 16.7325 33.3401 16.8199 33.12 16.8199V16.8199Z" fill="white"/>
<path d="M39.89 16.8199H37.48C37.2599 16.8199 37.0488 16.7325 36.8931 16.5768C36.7375 16.4212 36.65 16.21 36.65 15.9899C36.65 15.7698 36.7375 15.5587 36.8931 15.403C37.0488 15.2474 37.2599 15.1599 37.48 15.1599H39.89C40.1102 15.1599 40.3213 15.2474 40.4769 15.403C40.6326 15.5587 40.72 15.7698 40.72 15.9899C40.72 16.21 40.6326 16.4212 40.4769 16.5768C40.3213 16.7325 40.1102 16.8199 39.89 16.8199V16.8199Z" fill="white"/>
<path d="M40.09 47.9C39.9807 47.9014 39.8721 47.8808 39.7708 47.8396C39.6694 47.7984 39.5774 47.7373 39.5 47.66L38.5 46.66C38.4223 46.5837 38.3606 46.4926 38.3185 46.3922C38.2763 46.2917 38.2546 46.1839 38.2546 46.075C38.2546 45.9661 38.2763 45.8582 38.3185 45.7578C38.3606 45.6574 38.4223 45.5663 38.5 45.49C38.6555 45.3355 38.8658 45.2488 39.085 45.2488C39.3042 45.2488 39.5145 45.3355 39.67 45.49L40.67 46.49C40.8228 46.6484 40.9081 46.8599 40.9081 47.08C40.9081 47.3001 40.8228 47.5116 40.67 47.67C40.5146 47.8201 40.3061 47.9027 40.09 47.9Z" fill="white"/>
<path d="M50.36 59.3901C49.9081 59.3826 49.4637 59.2731 49.0601 59.0698C48.6565 58.8664 48.304 58.5746 48.029 58.2159C47.754 57.8573 47.5636 57.4411 47.472 56.9985C47.3804 56.556 47.39 56.0984 47.5 55.6601L46 54.1601C45.2275 53.381 44.1865 52.9267 43.09 52.8901L40.55 52.8001C38.9664 52.7547 37.4587 52.1116 36.33 51.0001L34.21 48.8701C34.1323 48.7937 34.0706 48.7027 34.0284 48.6023C33.9863 48.5018 33.9646 48.394 33.9646 48.2851C33.9646 48.1761 33.9863 48.0683 34.0284 47.9679C34.0706 47.8674 34.1323 47.7764 34.21 47.7001C34.3655 47.5456 34.5758 47.4589 34.795 47.4589C35.0142 47.4589 35.2245 47.5456 35.38 47.7001L37.51 49.8301C38.3327 50.6598 39.4421 51.1429 40.61 51.1801L43.15 51.2701C44.6578 51.3215 46.0889 51.9476 47.15 53.0201L49.03 54.9001C49.1663 55.024 49.2557 55.1912 49.283 55.3734C49.3103 55.5556 49.274 55.7416 49.18 55.9001C49.0553 56.1448 49.0114 56.4228 49.0545 56.6941C49.0977 56.9654 49.2256 57.216 49.42 57.4101C49.6681 57.6502 49.9998 57.7844 50.345 57.7844C50.6902 57.7844 51.0219 57.6502 51.27 57.4101L59.34 49.3501C59.5573 49.1289 59.6892 48.8379 59.7121 48.5286C59.735 48.2194 59.6475 47.9121 59.4651 47.6614C59.2827 47.4106 59.0173 47.2327 58.7161 47.1592C58.4149 47.0857 58.0973 47.1214 57.82 47.2601C57.6605 47.3504 57.4754 47.3847 57.2941 47.3576C57.1129 47.3304 56.9459 47.2432 56.82 47.1101L55.41 45.7001C54.0861 44.3793 52.97 42.8654 52.1 41.2101L51.57 40.2101C51.201 39.5159 50.7327 38.8792 50.18 38.3201L46.6 34.7401C46.5223 34.6637 46.4606 34.5727 46.4184 34.4723C46.3763 34.3718 46.3546 34.264 46.3546 34.1551C46.3546 34.0461 46.3763 33.9383 46.4184 33.8379C46.4606 33.7374 46.5223 33.6464 46.6 33.5701C46.7555 33.4156 46.9658 33.3289 47.185 33.3289C47.4042 33.3289 47.6145 33.4156 47.77 33.5701L51.35 37.1501C52.0199 37.8264 52.586 38.5981 53.03 39.4401L53.57 40.4401C54.3575 41.9472 55.369 43.3262 56.57 44.5301L57.57 45.5301C58.2012 45.3784 58.8645 45.4355 59.4605 45.6928C60.0565 45.9502 60.5529 46.394 60.8752 46.9575C61.1975 47.5209 61.3284 48.1738 61.2481 48.818C61.1678 49.4621 60.8807 50.0629 60.43 50.5301L52.36 58.6001C51.8138 59.1015 51.1014 59.3829 50.36 59.3901Z" fill="white"/>
<path d="M53.25 51.49C53.0878 51.4874 52.93 51.4372 52.796 51.3459C52.662 51.2545 52.5577 51.1259 52.496 50.9759C52.4343 50.8259 52.4179 50.6611 52.4488 50.5019C52.4797 50.3427 52.5566 50.196 52.67 50.08L56.88 45.87C56.9461 45.7662 57.0344 45.6784 57.1386 45.613C57.2428 45.5475 57.3603 45.5061 57.4825 45.4916C57.6047 45.4771 57.7286 45.49 57.8452 45.5293C57.9618 45.5686 58.0682 45.6333 58.1567 45.7188C58.2452 45.8043 58.3136 45.9084 58.3569 46.0236C58.4003 46.1387 58.4174 46.2621 58.4072 46.3847C58.397 46.5074 58.3597 46.6262 58.2979 46.7326C58.2361 46.839 58.1514 46.9304 58.05 47L53.84 51.21C53.7653 51.2937 53.6746 51.3616 53.5733 51.4097C53.472 51.4578 53.362 51.4851 53.25 51.49Z" fill="white"/>
<path d="M48.47 56.28C48.3606 56.2814 48.2521 56.2608 48.1507 56.2196C48.0494 56.1784 47.9574 56.1173 47.88 56.04C47.7255 55.8845 47.6388 55.6742 47.6388 55.455C47.6388 55.2358 47.7255 55.0255 47.88 54.87L49.58 53.17C49.7389 53.0348 49.9428 52.9645 50.1512 52.9728C50.3596 52.9812 50.5572 53.0678 50.7047 53.2153C50.8522 53.3628 50.9388 53.5604 50.9472 53.7688C50.9556 53.9772 50.8852 54.1811 50.75 54.34L49.05 56C48.9772 56.0834 48.8883 56.1512 48.7886 56.1993C48.689 56.2474 48.5806 56.2749 48.47 56.28Z" fill="white"/>
<path d="M29.31 47.9C29.0898 47.8984 28.8787 47.8125 28.72 47.66C28.5655 47.5045 28.4788 47.2942 28.4788 47.075C28.4788 46.8558 28.5655 46.6455 28.72 46.49L29.09 46.12C29.2488 45.9848 29.4528 45.9144 29.6612 45.9228C29.8696 45.9312 30.0672 46.0177 30.2147 46.1652C30.3622 46.3127 30.4487 46.5103 30.4571 46.7187C30.4655 46.9272 30.3951 47.1311 30.26 47.29L29.9 47.66C29.7413 47.8125 29.5301 47.8984 29.31 47.9Z" fill="white"/>
<path d="M19 59.39C18.213 59.3867 17.4588 59.0743 16.9 58.52L8.87 50.45C8.42096 49.9833 8.13502 49.3838 8.0549 48.7411C7.97479 48.0985 8.10481 47.4471 8.42553 46.8844C8.74625 46.3218 9.24045 45.878 9.83426 45.6195C10.4281 45.3609 11.0896 45.3015 11.72 45.45L12.72 44.45C13.9205 43.2458 14.932 41.8669 15.72 40.36L16.25 39.36C16.71 38.5099 17.3005 37.7371 18 37.07L22.56 32.51C22.6363 32.4323 22.7274 32.3706 22.8278 32.3285C22.9283 32.2863 23.0361 32.2646 23.145 32.2646C23.2539 32.2646 23.3618 32.2863 23.4622 32.3285C23.5626 32.3706 23.6537 32.4323 23.73 32.51C23.8845 32.6655 23.9712 32.8758 23.9712 33.095C23.9712 33.3142 23.8845 33.5245 23.73 33.68L19.17 38.24C18.6111 38.7939 18.1422 39.4315 17.78 40.13L17.24 41.13C16.3734 42.7876 15.257 44.3019 13.93 45.62L12.52 47C12.3941 47.1332 12.2271 47.2203 12.0459 47.2475C11.8646 47.2747 11.6795 47.2404 11.52 47.15C11.237 46.9687 10.8951 46.9031 10.5651 46.9667C10.2351 47.0304 9.94214 47.2185 9.74689 47.4921C9.55165 47.7657 9.46904 48.1038 9.51616 48.4366C9.56327 48.7694 9.73649 49.0714 10 49.28L18.07 57.34C18.3181 57.5801 18.6498 57.7144 18.995 57.7144C19.3402 57.7144 19.6719 57.5801 19.92 57.34C20.1141 57.1456 20.2411 56.8943 20.2825 56.6227C20.3239 56.3511 20.2775 56.0734 20.15 55.83C20.0614 55.6701 20.028 55.4854 20.0551 55.3046C20.0823 55.1237 20.1683 54.9569 20.3 54.83L22.22 53C23.2811 51.9275 24.7122 51.3014 26.22 51.25L28.77 51.16C29.9375 51.1209 31.0461 50.6381 31.87 49.81L32.59 49.09C32.7489 48.9549 32.9528 48.8845 33.1612 48.8929C33.3696 48.9013 33.5672 48.9878 33.7147 49.1353C33.8622 49.2828 33.9488 49.4804 33.9572 49.6888C33.9655 49.8972 33.8952 50.1012 33.76 50.26L33.04 50.98C31.9196 52.102 30.4147 52.7561 28.83 52.81L26.28 52.9C25.184 52.9386 24.1436 53.3927 23.37 54.17L21.87 55.67C21.9785 56.1085 21.9865 56.5658 21.8935 57.0079C21.8005 57.4499 21.6089 57.8652 21.333 58.2229C21.0571 58.5805 20.704 58.8712 20.3 59.0733C19.896 59.2754 19.4517 59.3837 19 59.39Z" fill="white"/>
<path d="M16.14 51.4901C16.0323 51.4901 15.9256 51.4689 15.8261 51.4278C15.7266 51.3866 15.6362 51.3262 15.56 51.2501L11.35 47.0001C11.2723 46.9238 11.2106 46.8327 11.1684 46.7323C11.1263 46.6318 11.1046 46.524 11.1046 46.4151C11.1046 46.3062 11.1263 46.1983 11.1684 46.0979C11.2106 45.9974 11.2723 45.9064 11.35 45.8301C11.5055 45.6756 11.7158 45.5889 11.935 45.5889C12.1542 45.5889 12.3645 45.6756 12.52 45.8301L16.73 50.0401C16.8439 50.1567 16.921 50.3043 16.9516 50.4644C16.9821 50.6245 16.9649 50.7901 16.902 50.9405C16.839 51.0909 16.7332 51.2194 16.5977 51.31C16.4622 51.4006 16.303 51.4493 16.14 51.4501V51.4901Z" fill="white"/>
<path d="M20.93 56.2799C20.7095 56.2805 20.4975 56.1943 20.34 56.04L18.64 54.34C18.4855 54.1845 18.3988 53.9742 18.3988 53.755C18.3988 53.5358 18.4855 53.3254 18.64 53.1699C18.7163 53.0922 18.8074 53.0305 18.9078 52.9884C19.0083 52.9463 19.1161 52.9246 19.225 52.9246C19.3339 52.9246 19.4418 52.9463 19.5422 52.9884C19.6426 53.0305 19.7337 53.0922 19.81 53.1699L21.51 54.8699C21.6234 54.9859 21.7003 55.1326 21.7312 55.2918C21.7621 55.451 21.7457 55.6158 21.684 55.7658C21.6223 55.9158 21.518 56.0444 21.384 56.1358C21.25 56.2272 21.0922 56.2773 20.93 56.2799V56.2799Z" fill="white"/>
<path d="M20.83 50.2501C20.7206 50.2515 20.6121 50.231 20.5107 50.1897C20.4094 50.1485 20.3174 50.0875 20.24 50.0101L14.24 44.0101C14.0855 43.8546 13.9988 43.6443 13.9988 43.4251C13.9988 43.2059 14.0855 42.9956 14.24 42.8401C14.3163 42.7624 14.4074 42.7007 14.5078 42.6586C14.6082 42.6164 14.7161 42.5947 14.825 42.5947C14.9339 42.5947 15.0417 42.6164 15.1422 42.6586C15.2426 42.7007 15.3337 42.7624 15.41 42.8401L21.41 48.8401C21.5645 48.9956 21.6512 49.2059 21.6512 49.4251C21.6512 49.6443 21.5645 49.8546 21.41 50.0101C21.3338 50.0862 21.2434 50.1466 21.1439 50.1878C21.0443 50.229 20.9377 50.2502 20.83 50.2501V50.2501Z" fill="white"/>
<path d="M47.52 50.7C47.4113 50.7004 47.3037 50.6785 47.2039 50.6355C47.1041 50.5924 47.0143 50.5293 46.94 50.45C46.7855 50.2945 46.6988 50.0842 46.6988 49.865C46.6988 49.6458 46.7855 49.4355 46.94 49.28L53.75 42.47C53.9055 42.3155 54.1158 42.2288 54.335 42.2288C54.5542 42.2288 54.7645 42.3155 54.92 42.47C54.9977 42.5463 55.0594 42.6373 55.1016 42.7378C55.1437 42.8382 55.1654 42.946 55.1654 43.055C55.1654 43.1639 55.1437 43.2717 55.1016 43.3722C55.0594 43.4726 54.9977 43.5636 54.92 43.64L48.11 50.45C48.0346 50.5305 47.9431 50.5944 47.8415 50.6375C47.7399 50.6805 47.6304 50.7018 47.52 50.7V50.7Z" fill="white"/>
<path d="M36.32 21.12H27C26.7799 21.12 26.5687 21.0325 26.4131 20.8769C26.2574 20.7212 26.17 20.5101 26.17 20.29C26.17 20.0698 26.2574 19.8587 26.4131 19.7031C26.5687 19.5474 26.7799 19.46 27 19.46H36.31C36.5301 19.46 36.7412 19.5474 36.8969 19.7031C37.0525 19.8587 37.14 20.0698 37.14 20.29C37.14 20.5101 37.0525 20.7212 36.8969 20.8769C36.7412 21.0325 36.5301 21.12 36.31 21.12H36.32Z" fill="white"/>
</g>
<defs>
<linearGradient id="paint0_linear_205_339" x1="0" y1="35" x2="70" y2="35" gradientUnits="userSpaceOnUse">
<stop stop-color="#673AB7"/>
<stop offset="1" stop-color="#512DA8"/>
</linearGradient>
<clipPath id="clip0_205_339">
<rect width="53.4" height="48.39" fill="white" transform="translate(8 11)"/>
</clipPath>
</defs>
</svg>
