<svg width="25" height="25" viewBox="0 0 25 25" fill="none" xmlns="http://www.w3.org/2000/svg">
<path d="M12.36 24.72C19.1862 24.72 24.72 19.1862 24.72 12.36C24.72 5.53376 19.1862 0 12.36 0C5.53376 0 0 5.53376 0 12.36C0 19.1862 5.53376 24.72 12.36 24.72Z" fill="#1E4FAD"/>
<path fill-rule="evenodd" clip-rule="evenodd" d="M14 7.77001H15.54V5.43001C15.3 5.43001 15.04 5.37001 14.79 5.36001C14.33 5.36001 13.87 5.31001 13.41 5.36001C12.6962 5.35089 11.9973 5.56408 11.41 5.97001C11.0897 6.20673 10.8208 6.50608 10.6197 6.84988C10.4186 7.19368 10.2894 7.57477 10.24 7.97001C10.1886 8.30089 10.1618 8.63515 10.16 8.97001C10.16 9.50001 10.16 9.97001 10.16 10.55V10.75H7.91003V13.36H10.13V19.92H12.85V13.28H15.07C15.18 12.41 15.29 11.55 15.41 10.65H12.83C12.83 10.65 12.83 9.36001 12.83 8.80001C12.88 8.00001 13.33 7.79001 14 7.77001Z" fill="white"/>
</svg>
