<svg width="25" height="25" viewBox="0 0 25 25" fill="none" xmlns="http://www.w3.org/2000/svg">
<path d="M12.36 24.72C19.1862 24.72 24.72 19.1862 24.72 12.36C24.72 5.53376 19.1862 0 12.36 0C5.53376 0 0 5.53376 0 12.36C0 19.1862 5.53376 24.72 12.36 24.72Z" fill="url(#paint0_linear_10_15)"/>
<path d="M18.9301 9.11999C18.8612 8.27208 18.4841 7.47878 17.8701 6.88999C17.2204 6.27257 16.3659 5.9165 15.4701 5.88999C13.3134 5.77988 11.1517 5.81664 9.00006 5.99999C8.32267 6.07921 7.68629 6.36573 7.17794 6.82038C6.66959 7.27503 6.31409 7.87561 6.16006 8.53999C5.89018 10.9816 5.87007 13.4443 6.10006 15.89C6.17953 16.5836 6.47694 17.2342 6.94952 17.7481C7.42211 18.262 8.0455 18.6128 8.73005 18.75C11.1381 18.9753 13.562 18.9753 15.9701 18.75C16.6627 18.6737 17.3135 18.3801 17.8291 17.9112C18.3446 17.4424 18.6985 16.8223 18.8401 16.14C19.0725 13.807 19.1027 11.4582 18.9301 9.11999ZM17.7301 15.67C17.6782 16.1981 17.4389 16.6902 17.0555 17.0571C16.6721 17.424 16.17 17.6415 15.6401 17.67C13.3917 17.8355 11.1332 17.8054 8.89006 17.58C8.46141 17.4761 8.07509 17.2428 7.78351 16.9119C7.49193 16.5809 7.30918 16.1683 7.26006 15.73C7.09485 13.5298 7.09485 11.3202 7.26006 9.11999C7.31128 8.59507 7.54771 8.10553 7.92701 7.73907C8.30631 7.3726 8.80369 7.15313 9.33006 7.11999C11.4774 6.96989 13.6327 6.96989 15.7801 7.11999C16.3082 7.17181 16.8003 7.41111 17.1672 7.79452C17.5341 8.17793 17.7515 8.68008 17.7801 9.20999C17.9096 11.362 17.8929 13.5203 17.7301 15.67ZM12.4901 8.99999C11.8255 8.99999 11.1759 9.19705 10.6233 9.56625C10.0708 9.93546 9.64013 10.4602 9.38582 11.0742C9.13151 11.6881 9.06497 12.3637 9.19462 13.0155C9.32426 13.6673 9.64427 14.266 10.1142 14.7359C10.5841 15.2058 11.1828 15.5258 11.8346 15.6554C12.4863 15.7851 13.1619 15.7185 13.7759 15.4642C14.3898 15.2099 14.9146 14.7793 15.2838 14.2267C15.653 13.6742 15.8501 13.0245 15.8501 12.36C15.8501 11.4689 15.4961 10.6142 14.8659 9.98411C14.2358 9.35399 13.3812 8.99999 12.4901 8.99999ZM12.4901 14.52C12.0609 14.516 11.6426 14.3849 11.2879 14.1431C10.9333 13.9014 10.6583 13.56 10.4977 13.162C10.3372 12.7639 10.2982 12.3273 10.3858 11.9071C10.4734 11.487 10.6837 11.1023 10.9899 10.8016C11.2962 10.5009 11.6847 10.2978 12.1064 10.218C12.5281 10.1381 12.964 10.1851 13.359 10.353C13.7539 10.5209 14.0903 10.8021 14.3254 11.1611C14.5606 11.5201 14.684 11.9408 14.6801 12.37C14.6814 12.6592 14.625 12.9458 14.514 13.2128C14.4031 13.4799 14.2399 13.7221 14.034 13.9252C13.8281 14.1283 13.5837 14.2882 13.3151 14.3955C13.0465 14.5028 12.7592 14.5553 12.4701 14.55L12.4901 14.52ZM16.7901 8.86999C16.7901 9.02624 16.7437 9.17898 16.6569 9.30889C16.5701 9.43881 16.4467 9.54006 16.3024 9.59986C16.158 9.65965 15.9992 9.67529 15.8459 9.64481C15.6927 9.61433 15.5519 9.53909 15.4414 9.42861C15.331 9.31812 15.2557 9.17736 15.2252 9.02411C15.1948 8.87087 15.2104 8.71203 15.2702 8.56767C15.33 8.42332 15.4312 8.29994 15.5612 8.21313C15.6911 8.12632 15.8438 8.07999 16.0001 8.07999C16.1047 8.08257 16.2078 8.1059 16.3033 8.14864C16.3988 8.19138 16.4849 8.25268 16.5565 8.32897C16.6282 8.40526 16.6839 8.49503 16.7206 8.59306C16.7572 8.69108 16.7741 8.79541 16.7701 8.89999L16.7901 8.86999Z" fill="white"/>
<path d="M18.9301 9.11999C18.8612 8.27208 18.4841 7.47878 17.8701 6.88999C17.2204 6.27257 16.3659 5.9165 15.4701 5.88999C13.3134 5.77988 11.1517 5.81664 9.00006 5.99999C8.32267 6.07921 7.68629 6.36573 7.17794 6.82038C6.66959 7.27503 6.31409 7.87561 6.16006 8.53999C5.89018 10.9816 5.87007 13.4443 6.10006 15.89C6.17953 16.5836 6.47694 17.2342 6.94952 17.7481C7.42211 18.262 8.0455 18.6128 8.73005 18.75C11.1381 18.9753 13.562 18.9753 15.9701 18.75C16.6627 18.6737 17.3135 18.3801 17.8291 17.9112C18.3446 17.4424 18.6985 16.8223 18.8401 16.14C19.0725 13.807 19.1027 11.4582 18.9301 9.11999ZM17.7301 15.67C17.6782 16.1981 17.4389 16.6902 17.0555 17.0571C16.6721 17.424 16.17 17.6415 15.6401 17.67C13.3917 17.8355 11.1332 17.8054 8.89006 17.58C8.46141 17.4761 8.07509 17.2428 7.78351 16.9119C7.49193 16.5809 7.30918 16.1683 7.26006 15.73C7.09485 13.5298 7.09485 11.3202 7.26006 9.11999C7.31128 8.59507 7.54771 8.10553 7.92701 7.73907C8.30631 7.3726 8.80369 7.15313 9.33006 7.11999C11.4774 6.96989 13.6327 6.96989 15.7801 7.11999C16.3082 7.17181 16.8003 7.41111 17.1672 7.79452C17.5341 8.17793 17.7515 8.68008 17.7801 9.20999C17.9096 11.362 17.8929 13.5203 17.7301 15.67ZM12.4901 8.99999C11.8255 8.99999 11.1759 9.19705 10.6233 9.56625C10.0708 9.93546 9.64013 10.4602 9.38582 11.0742C9.13151 11.6881 9.06497 12.3637 9.19462 13.0155C9.32426 13.6673 9.64427 14.266 10.1142 14.7359C10.5841 15.2058 11.1828 15.5258 11.8346 15.6554C12.4863 15.7851 13.1619 15.7185 13.7759 15.4642C14.3898 15.2099 14.9146 14.7793 15.2838 14.2267C15.653 13.6742 15.8501 13.0245 15.8501 12.36C15.8501 11.4689 15.4961 10.6142 14.8659 9.98411C14.2358 9.35399 13.3812 8.99999 12.4901 8.99999ZM12.4901 14.52C12.0609 14.516 11.6426 14.3849 11.2879 14.1431C10.9333 13.9014 10.6583 13.56 10.4977 13.162C10.3372 12.7639 10.2982 12.3273 10.3858 11.9071C10.4734 11.487 10.6837 11.1023 10.9899 10.8016C11.2962 10.5009 11.6847 10.2978 12.1064 10.218C12.5281 10.1381 12.964 10.1851 13.359 10.353C13.7539 10.5209 14.0903 10.8021 14.3254 11.1611C14.5606 11.5201 14.684 11.9408 14.6801 12.37C14.6814 12.6592 14.625 12.9458 14.514 13.2128C14.4031 13.4799 14.2399 13.7221 14.034 13.9252C13.8281 14.1283 13.5837 14.2882 13.3151 14.3955C13.0465 14.5028 12.7592 14.5553 12.4701 14.55L12.4901 14.52ZM16.7901 8.86999C16.7901 9.02624 16.7437 9.17898 16.6569 9.30889C16.5701 9.43881 16.4467 9.54006 16.3024 9.59986C16.158 9.65965 15.9992 9.67529 15.8459 9.64481C15.6927 9.61433 15.5519 9.53909 15.4414 9.42861C15.331 9.31812 15.2557 9.17736 15.2252 9.02411C15.1948 8.87087 15.2104 8.71203 15.2702 8.56767C15.33 8.42332 15.4312 8.29994 15.5612 8.21313C15.6911 8.12632 15.8438 8.07999 16.0001 8.07999C16.1047 8.08257 16.2078 8.1059 16.3033 8.14864C16.3988 8.19138 16.4849 8.25268 16.5565 8.32897C16.6282 8.40526 16.6839 8.49503 16.7206 8.59306C16.7572 8.69108 16.7741 8.79541 16.7701 8.89999L16.7901 8.86999Z" fill="white"/>
<defs>
<linearGradient id="paint0_linear_10_15" x1="24.42" y1="-2.49" x2="4.63" y2="21.89" gradientUnits="userSpaceOnUse">
<stop offset="0.01" stop-color="#3542E0"/>
<stop offset="0.17" stop-color="#3841DF"/>
<stop offset="0.27" stop-color="#403FDA"/>
<stop offset="0.36" stop-color="#4E3CD2"/>
<stop offset="0.43" stop-color="#6337C7"/>
<stop offset="0.5" stop-color="#7D31B9"/>
<stop offset="0.56" stop-color="#9E2AA8"/>
<stop offset="0.62" stop-color="#C82091"/>
<stop offset="0.76" stop-color="#F62B37"/>
<stop offset="1" stop-color="#FFC658"/>
</linearGradient>
</defs>
</svg>
