<svg width="135" height="55" viewBox="0 0 135 55" fill="none" xmlns="http://www.w3.org/2000/svg">
<path d="M89.4187 30.3602L90.1054 32.6002C91.91 32.2494 91.91 32.2494 93.7891 30.2288C95.2557 29.9061 95.2531 28.8499 95.049 27.699C93.2405 27.1089 93.2821 27.1452 92.0683 28.4755C91.4374 29.1729 90.6339 29.7047 89.9129 30.3033L89.4187 30.3602Z" fill="white"/>
<path d="M38.4629 21.9028C38.7077 22.3152 38.8354 22.6931 39.0902 22.9254C39.839 23.5973 40.8898 23.3504 41.0901 22.3979C41.3476 21.1737 41.6224 20.068 42.9468 19.5178C43.1694 19.4248 43.3187 18.7249 43.2156 18.3918C43.0839 17.966 42.6627 17.6308 42.2278 17.0766C41.164 17.8371 40.1645 18.5398 39.2054 19.2911C39.0151 19.4399 38.8314 19.9238 38.9233 20.0557C39.4856 20.8607 38.6729 21.2668 38.4629 21.9028Z" fill="white"/>
<path d="M125.704 26.5858C126.832 25.3469 126.04 24.1909 126.004 23.0971C125.979 22.3863 125.186 22.0509 124.443 22.2741C124.045 22.4378 123.669 22.6523 123.325 22.9123C123.346 23.7312 123.411 24.5485 123.519 25.3605C123.559 25.5521 123.637 25.7337 123.749 25.8943C123.86 26.0549 124.004 26.1911 124.17 26.2949C124.643 26.5105 125.216 26.4966 125.704 26.5858Z" fill="white"/>
<path d="M49.6988 13.0203L47.2449 12.7997C46.7465 14.5525 46.9922 15.4491 47.9295 15.6485C48.8667 15.848 49.479 15.126 49.6988 13.0203Z" fill="white"/>
<path d="M69.5304 24.6774L67.4234 23.3891C66.2383 24.8545 66.0895 25.7026 66.8202 26.2924C67.551 26.8822 68.4433 26.4827 69.5304 24.6774Z" fill="white"/>
<path d="M46.4888 25.437C48.0846 24.9411 48.6873 24.2993 48.4295 23.465C48.1717 22.6307 47.4107 22.4358 45.7966 22.9102C45.1574 23.9661 45.7297 24.7151 46.4888 25.437Z" fill="white"/>
<path d="M38.3346 30.5762L40.8006 30.8798C41.2234 29.0865 41.0267 28.2767 40.2081 28.0811C39.2517 27.8542 38.6204 28.591 38.3346 30.5762Z" fill="white"/>
<path d="M88.7196 25.4189C89.0008 24.6272 89.2862 23.8227 89.567 23.0492C87.7834 22.2768 86.8774 22.3544 86.6069 23.1779C86.3121 24.1048 86.9365 24.816 88.7196 25.4189Z" fill="white"/>
<path d="M71.5507 29.9377C70.8968 30.7686 71.1794 31.5448 71.6949 32.4021C72.4619 32.4719 73.3463 32.7033 73.8083 31.7399C73.9848 31.3721 74.0457 30.7305 73.8394 30.4367C73.2741 29.632 72.414 29.6091 71.5507 29.9377Z" fill="white"/>
<path d="M63.6201 12.93C62.3729 12.7848 61.9209 13.5681 61.4826 14.3616C62.5049 15.8927 63.2109 16.25 63.9713 15.6518C64.7318 15.0536 64.6798 14.3649 63.6201 12.93Z" fill="white"/>
<path d="M85.9359 32.2218C86.075 33.3217 86.2383 34.2969 87.3646 34.4021C87.7723 34.4366 88.518 34.007 88.5983 33.6653C88.7395 33.0968 88.6865 32.1933 88.3335 31.8482C87.5787 31.1348 86.7837 31.8289 85.9359 32.2218Z" fill="white"/>
<path d="M118.772 30.8015C119.79 30.1204 119.755 29.2355 119.622 28.3254C118.033 27.8063 117.064 27.9747 116.856 28.7891C116.648 29.6035 117.269 30.291 118.772 30.8015Z" fill="white"/>
<path d="M97.1557 14.8803C96.7099 14.0855 96.333 13.3897 95.932 12.7155C94.2573 13.4591 93.7182 14.1431 94.0495 14.9001C94.4242 15.7053 95.2445 15.7461 97.1557 14.8803Z" fill="white"/>
<path d="M116.097 24.9069C117.076 24.7885 118.07 24.8586 118.412 23.7371C118.454 23.6039 118.468 23.4636 118.455 23.3246C118.441 23.1857 118.399 23.051 118.331 22.9288C118.263 22.8067 118.171 22.6996 118.061 22.6141C117.951 22.5287 117.824 22.4666 117.689 22.4317C117.157 22.2701 116.351 22.2029 115.976 22.4967C115.099 23.1724 115.666 24.0253 116.097 24.9069Z" fill="white"/>
<path d="M90.1224 13.4169C90.5579 14.3282 90.9774 15.254 92.0972 15.003C92.4817 14.9197 92.9771 14.2481 92.9815 13.8418C92.9868 13.3173 92.682 12.5141 92.2748 12.3161C91.3466 11.8671 90.7046 12.5722 90.1224 13.4169Z" fill="white"/>
<path d="M107.423 31.4928C106.585 31.9722 105.671 32.3264 105.942 33.3767C106.037 33.6071 106.188 33.8102 106.381 33.9676C106.574 34.125 106.804 34.2317 107.048 34.2781C107.563 34.2787 108.325 33.9618 108.541 33.5519C109.06 32.5651 108.182 32.0664 107.423 31.4928Z" fill="white"/>
<path d="M59.9333 11.0632C58.426 11.6673 57.9245 12.3186 58.3006 13.1539C58.6548 13.9438 59.3049 14.0004 60.8591 13.3652C61.1503 12.351 60.7614 11.6146 59.9333 11.0632Z" fill="white"/>
<path d="M30.2138 21.6543C29.9684 20.8636 29.749 20.1478 29.5352 19.4494C27.8446 19.7927 27.1079 20.4086 27.2974 21.2105C27.5054 22.0974 28.3858 22.2809 30.2138 21.6543Z" fill="white"/>
<path d="M35.754 17.9566L35.0575 20.2196C36.8189 20.9014 37.6845 20.7753 37.9048 19.8985C38.1252 19.0218 37.5798 18.4988 35.754 17.9566Z" fill="white"/>
<path d="M122.475 35.6481L120.449 34.5176C119.876 35.3246 119.166 35.9155 119.69 36.8503C119.79 37.0214 119.926 37.169 120.089 37.2832C120.251 37.3974 120.436 37.4755 120.631 37.5123C121.618 37.5532 122.123 36.8891 122.475 35.6481Z" fill="white"/>
<path d="M40.6922 32.8762C42.3009 33.9646 43.007 34.0525 43.4966 33.4241C44.0829 32.6696 43.7625 32.0079 42.1266 30.8992L40.6922 32.8762Z" fill="white"/>
<path d="M126.865 23.8107L129.194 24.6035C129.929 23.0251 129.878 22.2152 129.121 21.7987C128.364 21.3823 127.661 21.9177 126.865 23.8107Z" fill="white"/>
<path d="M21.3163 22.6488C20.2982 23.9717 20.1472 24.7839 20.8349 25.2861C21.577 25.8288 22.3411 25.4843 23.3041 24.1573C23.0542 23.1069 22.2449 22.7889 21.3163 22.6488Z" fill="white"/>
<path d="M97.4464 25.3916C96.4658 23.9391 95.7908 23.5865 95.0916 24.1273C94.3493 24.7047 94.4036 25.3265 95.3228 26.6486C96.327 26.8504 96.9071 26.2815 97.4464 25.3916Z" fill="white"/>
<path d="M119.611 24.6131C120.522 25.3371 121.303 24.9447 122.057 24.3203C121.879 22.7872 121.479 22.1613 120.697 22.1965C119.779 22.2394 119.463 22.9546 119.611 24.6131Z" fill="white"/>
<path d="M125.601 28.3058L124.124 30.0346C125.331 31.3119 126.166 31.5807 126.771 30.9749C127.422 30.335 127.139 29.5559 125.601 28.3058Z" fill="white"/>
<path d="M45.8452 17.4276L46.0798 15.132C44.4073 14.6855 43.5548 14.9642 43.4235 15.8703C43.3063 16.6866 43.9334 17.1462 45.8452 17.4276Z" fill="white"/>
<path d="M103.873 32.0986C102.388 32.4633 101.862 32.9669 102.059 33.8221C102.27 34.745 103.035 34.8907 104.678 34.3031C104.971 33.3644 104.62 32.6587 103.873 32.0986Z" fill="white"/>
<path d="M8.58111 31.3338C8.93161 29.5844 8.71274 28.8928 7.97002 28.7195C7.05482 28.5259 6.54157 29.2001 6.36929 31.0507L8.58111 31.3338Z" fill="white"/>
<path d="M50.4775 30.786C49.852 30.1294 49.1943 29.4594 48.268 29.9576C48.0897 30.1025 47.9513 30.2904 47.8658 30.5036C47.7803 30.7168 47.7507 30.9483 47.7795 31.1762C47.9657 31.6849 48.4544 32.3583 48.9041 32.4321C49.8781 32.5928 50.1853 31.7095 50.4775 30.786Z" fill="white"/>
<path d="M88.4473 18.6474C86.7122 18.8518 86.1478 19.258 86.2862 20.1248C86.4037 20.9311 86.897 21.1377 88.577 21.0745C89.1954 20.2911 88.8951 19.5387 88.4473 18.6474Z" fill="white"/>
<path d="M110.951 33.658C111.548 33.1411 112.069 32.6898 112.581 32.252C111.591 30.8643 110.865 30.4948 110.252 30.9838C109.577 31.5241 109.736 32.3396 110.951 33.658Z" fill="white"/>
<path d="M54.426 13.0343L56.5381 13.4227C57.0848 11.7113 56.9009 10.948 56.0363 10.8107C55.1717 10.6733 54.7153 11.2393 54.426 13.0343Z" fill="white"/>
<path d="M70.3061 26.9644C69.3367 27.1056 68.4153 27.2642 68.4451 28.3617C68.4586 28.7866 68.9092 29.4687 69.2652 29.5439C69.7743 29.6514 70.6042 29.488 70.89 29.1225C71.4945 28.3684 70.8372 27.6801 70.3061 26.9644Z" fill="white"/>
<path d="M97.1444 31.275L95.0116 30.7655C94.4984 32.3539 94.6428 33.0957 95.432 33.3803C96.2213 33.6649 96.7607 33.1079 97.1444 31.275Z" fill="white"/>
<path d="M120.672 28.7757C121.402 28.5906 122.119 28.3597 122.82 28.0842C123.021 27.9883 123.166 27.5706 123.166 27.3011C123.167 26.414 122.441 26.1081 120.652 26.2932C120.658 26.9583 120.664 27.6446 120.672 28.7757Z" fill="white"/>
<path d="M47.8129 27.8962C48.5845 28.371 49.3345 28.8853 49.9945 28.1171C50.2542 27.8219 50.2804 27.0462 50.071 26.6892C49.8615 26.3322 49.1739 25.8724 48.7784 25.9421C47.8308 26.1075 47.8151 26.9967 47.8129 27.8962Z" fill="white"/>
<path d="M52.7803 14.0368C53.1755 12.8228 53.3206 11.9904 52.3988 11.5647C52.0734 11.4093 51.2973 11.5466 51.1294 11.8072C50.8413 12.2609 50.5942 13.2444 50.8073 13.4192C51.2863 13.8186 52.0583 13.8393 52.7803 14.0368Z" fill="white"/>
<path d="M97.6994 22.9113C98.4465 22.2212 98.4749 21.4603 97.9404 20.6391C96.5262 20.4486 95.8013 20.7298 95.7369 21.493C95.6726 22.2562 96.2147 22.6736 97.6994 22.9113Z" fill="white"/>
<path d="M97.3087 16.323C96.5483 16.7971 95.5914 17.1273 95.916 18.2122C96.0165 18.4191 96.1684 18.5968 96.3571 18.7283C96.5459 18.8598 96.7652 18.9407 96.9942 18.9632C97.5189 18.8867 98.2403 18.5606 98.4344 18.1479C98.8099 17.297 98.0595 16.8221 97.3087 16.323Z" fill="white"/>
<path d="M77.092 32.0243L74.9786 31.9176C74.741 33.4658 74.974 34.2129 75.634 34.3377C76.5084 34.5009 77.0128 33.8068 77.092 32.0243Z" fill="white"/>
<path d="M113.44 30.7286C113.714 31.5725 114.131 32.2776 115.073 32.1313C115.42 32.0807 115.954 31.5124 115.934 31.2095C115.902 30.6724 115.639 29.8903 115.238 29.6944C114.476 29.3242 113.907 29.949 113.44 30.7286Z" fill="white"/>
<path d="M122.174 32.1502C121.919 33.1168 121.936 33.9407 122.832 34.2945C123.154 34.4291 123.907 34.2105 124.068 33.9266C124.333 33.4612 124.532 32.6663 124.305 32.2695C123.8 31.3834 122.968 31.7772 122.174 32.1502Z" fill="white"/>
<path d="M128.221 28.6078L129.743 26.9631C128.438 25.6912 127.894 25.5102 127.325 26.0502C126.756 26.5903 126.906 27.2707 128.221 28.6078Z" fill="white"/>
<path d="M10.2271 29.7931C10.7183 30.6297 11.3054 31.189 12.171 30.7722C12.482 30.6209 12.8134 29.9248 12.7117 29.6217C12.5417 29.1197 12.0788 28.4364 11.6474 28.3631C10.7996 28.196 10.4302 28.9643 10.2271 29.7931Z" fill="white"/>
<path d="M65.4085 20.073C64.9379 21.8914 65.156 22.6195 66.0118 22.7793C66.7866 22.9237 67.2021 22.4302 67.5905 20.7329L65.4085 20.073Z" fill="white"/>
<path d="M47.6992 33.68C47.0697 33.0996 46.5277 32.6004 45.9963 32.1118C44.7069 33.3804 44.4869 34.0724 45.1006 34.6278C45.7144 35.1832 46.2917 34.99 47.6992 33.68Z" fill="white"/>
<path d="M85.0145 33.7694C84.5777 32.9945 84.085 32.252 83.0841 32.6128C82.7535 32.7336 82.3161 33.3877 82.4003 33.6539C82.5756 34.2338 82.9689 35.0211 83.425 35.1393C84.3472 35.3803 84.6924 34.4884 85.0145 33.7694Z" fill="white"/>
<path d="M66.2467 17.8056C65.4728 16.5047 64.9322 16.1808 64.2773 16.6517C63.5606 17.1557 63.6122 17.7385 64.4744 18.96C65.5386 18.7837 65.5386 18.7837 66.2467 17.8056Z" fill="white"/>
<path d="M25.643 21.0305C24.7213 21.0831 23.9859 21.3962 23.8838 22.295C23.847 22.6031 24.3185 23.2004 24.6742 23.2939C25.1219 23.4163 25.8923 23.3434 26.1334 23.0449C26.675 22.3786 26.2114 21.7106 25.643 21.0305Z" fill="white"/>
<path d="M45.2508 21.9054C44.9365 21.3275 44.6175 20.7383 44.3062 20.16C42.8308 20.817 42.3398 21.4154 42.644 22.0491C43.0106 22.8191 43.8142 22.808 45.2508 21.9054Z" fill="white"/>
<path d="M16.2734 28.8838C16.292 27.9517 16.2506 27.107 15.2444 26.9328C15.0454 26.9313 14.8493 26.9806 14.6746 27.076C14.5 27.1714 14.3525 27.3097 14.2461 27.4779C14.0737 27.9359 13.9792 28.6793 14.2338 28.9933C14.7877 29.6573 15.5448 29.3683 16.2734 28.8838Z" fill="white"/>
<path d="M79.679 32.4128L78.3241 33.8757C79.3779 35.1237 80.0111 35.3766 80.5625 34.8603C81.2208 34.2467 80.9938 33.5199 79.679 32.4128Z" fill="white"/>
<path d="M19.7872 25.4502L17.7331 25.0654C17.2715 26.7583 17.4115 27.304 18.2454 27.5004C18.9975 27.6753 19.3374 27.2867 19.7872 25.4502Z" fill="white"/>
<path d="M38.9357 24.3976C37.8006 25.5621 37.615 26.2824 38.2162 26.7729C38.8175 27.2635 39.4633 27.0211 40.4745 25.6507L38.9357 24.3976Z" fill="white"/>
<path d="M89.2027 25.8879C88.8959 26.6289 88.6363 27.257 88.38 27.8666C89.7696 28.6146 90.657 28.5761 90.9803 27.8448C91.3036 27.1135 90.9019 26.6423 89.2027 25.8879Z" fill="white"/>
<path d="M89.3402 17.4819C89.9036 16.5492 90.2306 15.781 89.4434 15.1783C89.2411 15.0763 89.0162 15.0274 88.7898 15.036C88.5634 15.0446 88.3429 15.1106 88.1489 15.2277C87.8032 15.5354 87.4559 16.4548 87.5884 16.5747C88.0683 17.0013 88.7484 17.2019 89.3402 17.4819Z" fill="white"/>
<path d="M33.0379 21.2553C33.8151 19.8161 33.8474 19.103 33.274 18.7204C32.6526 18.2994 32.0305 18.6837 31.1593 20.1426L33.0379 21.2553Z" fill="white"/>
<path d="M99.1071 31.6335C98.7758 32.3932 98.5039 33.0201 98.2396 33.6369C99.7076 34.4037 100.348 34.4164 100.7 33.7596C101.087 33.0463 100.718 32.4886 99.1071 31.6335Z" fill="white"/>
<path d="M131.04 21.6336C130.777 22.4257 130.663 23.2022 131.499 23.5739C131.791 23.7099 132.472 23.5623 132.633 23.3178C132.878 22.9218 133.098 22.2298 132.922 21.8558C132.56 21.0942 131.801 21.3502 131.04 21.6336Z" fill="white"/>
<circle cx="6.5" cy="31.5" r="3.5" fill="white"/>
</svg>
