<svg width="25" height="25" viewBox="0 0 25 25" fill="none" xmlns="http://www.w3.org/2000/svg">
<path d="M12.36 24.72C19.1862 24.72 24.72 19.1862 24.72 12.36C24.72 5.53376 19.1862 0 12.36 0C5.53376 0 0 5.53376 0 12.36C0 19.1862 5.53376 24.72 12.36 24.72Z" fill="#007AB5"/>
<path d="M7.07991 9.78H9.58991V17.84H7.07991V9.78ZM8.32991 5.78C8.61952 5.77803 8.90316 5.86222 9.14478 6.02189C9.3864 6.18155 9.57509 6.40947 9.68683 6.67665C9.79857 6.94383 9.82833 7.23822 9.77231 7.52236C9.7163 7.8065 9.57704 8.06756 9.37226 8.27234C9.16747 8.47713 8.90641 8.61638 8.62227 8.6724C8.33813 8.72841 8.04374 8.69866 7.77655 8.58692C7.50937 8.47518 7.28146 8.2865 7.1218 8.04488C6.96214 7.80325 6.87794 7.51961 6.87992 7.23C6.87992 6.84544 7.03269 6.47663 7.30461 6.2047C7.57654 5.93277 7.94535 5.78 8.32991 5.78Z" fill="white"/>
<path d="M11.1599 9.78001H13.5599V10.88C13.8027 10.4713 14.1507 10.1351 14.5675 9.90652C14.9843 9.67789 15.4548 9.56514 15.9299 9.58001C18.4699 9.58001 18.9299 11.25 18.9299 13.42V17.84H16.4699V13.92C16.4699 12.98 16.4699 11.78 15.1599 11.78C13.8499 11.78 13.6599 12.78 13.6599 13.85V17.85H11.1599V9.78001Z" fill="white"/>
</svg>
