<svg width="216" height="66" viewBox="0 0 216 66" fill="none" xmlns="http://www.w3.org/2000/svg">
<path d="M61.096 31.824H65.704V45H69.76V31.824H74.392V28.2H61.096V31.824ZM80.4291 37.392L85.1331 45H89.8851L84.6291 37.392H80.4291ZM76.2291 28.2V45H80.2851V28.2H76.2291ZM78.7731 31.632H82.0611C82.6051 31.632 83.0691 31.72 83.4531 31.896C83.8531 32.072 84.1571 32.328 84.3651 32.664C84.5731 32.984 84.6771 33.376 84.6771 33.84C84.6771 34.304 84.5731 34.704 84.3651 35.04C84.1571 35.36 83.8531 35.608 83.4531 35.784C83.0691 35.944 82.6051 36.024 82.0611 36.024H78.7731V39.168H82.3491C83.7891 39.168 84.9891 38.936 85.9491 38.472C86.9091 38.008 87.6371 37.368 88.1331 36.552C88.6291 35.72 88.8771 34.768 88.8771 33.696C88.8771 32.608 88.6291 31.656 88.1331 30.84C87.6371 30.008 86.9091 29.36 85.9491 28.896C84.9891 28.432 83.7891 28.2 82.3491 28.2H78.7731V31.632ZM95.1042 36.6C95.1042 35.608 95.2962 34.736 95.6802 33.984C96.0802 33.216 96.6322 32.616 97.3362 32.184C98.0562 31.752 98.8962 31.536 99.8562 31.536C100.832 31.536 101.672 31.752 102.376 32.184C103.08 32.616 103.624 33.216 104.008 33.984C104.392 34.736 104.584 35.608 104.584 36.6C104.584 37.592 104.384 38.472 103.984 39.24C103.6 39.992 103.048 40.584 102.328 41.016C101.624 41.448 100.8 41.664 99.8562 41.664C98.8962 41.664 98.0562 41.448 97.3362 41.016C96.6322 40.584 96.0802 39.992 95.6802 39.24C95.2962 38.472 95.1042 37.592 95.1042 36.6ZM90.8082 36.6C90.8082 37.896 91.0242 39.088 91.4562 40.176C91.9042 41.264 92.5282 42.208 93.3282 43.008C94.1442 43.808 95.1042 44.432 96.2082 44.88C97.3122 45.312 98.5282 45.528 99.8562 45.528C101.168 45.528 102.376 45.312 103.48 44.88C104.584 44.432 105.536 43.808 106.336 43.008C107.152 42.208 107.776 41.264 108.208 40.176C108.656 39.088 108.88 37.896 108.88 36.6C108.88 35.304 108.656 34.12 108.208 33.048C107.76 31.976 107.128 31.048 106.312 30.264C105.496 29.48 104.536 28.88 103.432 28.464C102.344 28.032 101.152 27.816 99.8562 27.816C98.5762 27.816 97.3842 28.032 96.2802 28.464C95.1762 28.88 94.2162 29.48 93.4002 30.264C92.5842 31.048 91.9442 31.976 91.4802 33.048C91.0322 34.12 90.8082 35.304 90.8082 36.6ZM114.815 36.6C114.815 35.608 115.007 34.736 115.391 33.984C115.791 33.216 116.343 32.616 117.047 32.184C117.767 31.752 118.607 31.536 119.567 31.536C120.543 31.536 121.383 31.752 122.087 32.184C122.791 32.616 123.335 33.216 123.719 33.984C124.103 34.736 124.295 35.608 124.295 36.6C124.295 37.592 124.095 38.472 123.695 39.24C123.311 39.992 122.759 40.584 122.039 41.016C121.335 41.448 120.511 41.664 119.567 41.664C118.607 41.664 117.767 41.448 117.047 41.016C116.343 40.584 115.791 39.992 115.391 39.24C115.007 38.472 114.815 37.592 114.815 36.6ZM110.519 36.6C110.519 37.896 110.735 39.088 111.167 40.176C111.615 41.264 112.239 42.208 113.039 43.008C113.855 43.808 114.815 44.432 115.919 44.88C117.023 45.312 118.239 45.528 119.567 45.528C120.879 45.528 122.087 45.312 123.191 44.88C124.295 44.432 125.247 43.808 126.047 43.008C126.863 42.208 127.487 41.264 127.919 40.176C128.367 39.088 128.591 37.896 128.591 36.6C128.591 35.304 128.367 34.12 127.919 33.048C127.471 31.976 126.839 31.048 126.023 30.264C125.207 29.48 124.247 28.88 123.143 28.464C122.055 28.032 120.863 27.816 119.567 27.816C118.287 27.816 117.095 28.032 115.991 28.464C114.887 28.88 113.927 29.48 113.111 30.264C112.295 31.048 111.655 31.976 111.191 33.048C110.743 34.12 110.519 35.304 110.519 36.6ZM139.729 36.6C139.729 35.288 140.017 34.144 140.593 33.168C141.185 32.176 141.953 31.4 142.897 30.84C143.841 30.28 144.865 30 145.969 30C146.769 30 147.497 30.104 148.153 30.312C148.825 30.52 149.433 30.816 149.977 31.2C150.521 31.568 150.985 32 151.369 32.496V29.808C150.665 29.184 149.897 28.72 149.065 28.416C148.233 28.112 147.201 27.96 145.969 27.96C144.801 27.96 143.705 28.176 142.681 28.608C141.673 29.024 140.785 29.624 140.017 30.408C139.249 31.176 138.649 32.088 138.217 33.144C137.785 34.2 137.569 35.352 137.569 36.6C137.569 37.848 137.785 39 138.217 40.056C138.649 41.112 139.249 42.032 140.017 42.816C140.785 43.584 141.673 44.184 142.681 44.616C143.705 45.032 144.801 45.24 145.969 45.24C147.201 45.24 148.233 45.088 149.065 44.784C149.897 44.48 150.665 44.016 151.369 43.392V40.704C150.985 41.2 150.521 41.64 149.977 42.024C149.433 42.392 148.825 42.68 148.153 42.888C147.497 43.096 146.769 43.2 145.969 43.2C144.865 43.2 143.841 42.92 142.897 42.36C141.953 41.8 141.185 41.024 140.593 40.032C140.017 39.04 139.729 37.896 139.729 36.6ZM153.879 39.48C153.879 40.584 154.127 41.576 154.623 42.456C155.135 43.32 155.823 44 156.687 44.496C157.551 44.992 158.519 45.24 159.591 45.24C160.679 45.24 161.647 44.992 162.495 44.496C163.359 44 164.039 43.32 164.535 42.456C165.047 41.576 165.303 40.584 165.303 39.48C165.303 38.36 165.047 37.368 164.535 36.504C164.039 35.64 163.359 34.96 162.495 34.464C161.647 33.968 160.679 33.72 159.591 33.72C158.519 33.72 157.551 33.968 156.687 34.464C155.823 34.96 155.135 35.64 154.623 36.504C154.127 37.368 153.879 38.36 153.879 39.48ZM155.823 39.48C155.823 38.712 155.983 38.032 156.303 37.44C156.639 36.832 157.087 36.36 157.647 36.024C158.223 35.688 158.871 35.52 159.591 35.52C160.311 35.52 160.951 35.688 161.511 36.024C162.087 36.36 162.535 36.832 162.855 37.44C163.191 38.032 163.359 38.712 163.359 39.48C163.359 40.248 163.191 40.928 162.855 41.52C162.535 42.112 162.087 42.584 161.511 42.936C160.951 43.272 160.311 43.44 159.591 43.44C158.871 43.44 158.223 43.272 157.647 42.936C157.087 42.584 156.639 42.112 156.303 41.52C155.983 40.928 155.823 40.248 155.823 39.48ZM175.021 38.28V45H176.941V38.04C176.941 36.712 176.597 35.664 175.909 34.896C175.237 34.112 174.317 33.72 173.149 33.72C172.429 33.72 171.789 33.88 171.229 34.2C170.685 34.52 170.229 35.016 169.861 35.688V33.96H167.941V45H169.861V38.28C169.861 37.736 169.973 37.256 170.197 36.84C170.437 36.424 170.765 36.104 171.181 35.88C171.613 35.64 172.109 35.52 172.669 35.52C173.437 35.52 174.021 35.752 174.421 36.216C174.821 36.68 175.021 37.368 175.021 38.28ZM181.006 41.616L179.494 42.552C179.702 42.984 180.006 43.408 180.406 43.824C180.822 44.24 181.326 44.584 181.918 44.856C182.51 45.112 183.174 45.24 183.91 45.24C185.046 45.24 185.958 44.92 186.646 44.28C187.35 43.64 187.702 42.84 187.702 41.88C187.702 41.224 187.542 40.688 187.222 40.272C186.918 39.856 186.502 39.504 185.974 39.216C185.446 38.912 184.862 38.632 184.222 38.376C183.838 38.216 183.47 38.048 183.118 37.872C182.766 37.696 182.478 37.496 182.254 37.272C182.03 37.048 181.918 36.792 181.918 36.504C181.918 36.136 182.062 35.864 182.35 35.688C182.638 35.512 182.982 35.424 183.382 35.424C183.958 35.424 184.47 35.56 184.918 35.832C185.382 36.104 185.766 36.448 186.07 36.864L187.606 35.88C187.382 35.464 187.07 35.096 186.67 34.776C186.27 34.456 185.806 34.2 185.278 34.008C184.766 33.816 184.214 33.72 183.622 33.72C183.03 33.72 182.454 33.824 181.894 34.032C181.35 34.24 180.902 34.56 180.55 34.992C180.214 35.424 180.046 35.968 180.046 36.624C180.046 37.264 180.206 37.8 180.526 38.232C180.862 38.648 181.27 38.992 181.75 39.264C182.246 39.52 182.734 39.744 183.214 39.936C183.646 40.096 184.054 40.272 184.438 40.464C184.822 40.64 185.134 40.864 185.374 41.136C185.63 41.392 185.758 41.712 185.758 42.096C185.758 42.528 185.598 42.872 185.278 43.128C184.974 43.368 184.55 43.488 184.006 43.488C183.558 43.488 183.142 43.408 182.758 43.248C182.39 43.072 182.062 42.84 181.774 42.552C181.486 42.264 181.23 41.952 181.006 41.616ZM192.15 40.68V33.96H190.23V40.92C190.23 42.232 190.574 43.28 191.262 44.064C191.95 44.848 192.87 45.24 194.022 45.24C194.758 45.24 195.398 45.08 195.942 44.76C196.486 44.424 196.942 43.928 197.31 43.272V45H199.23V33.96H197.31V40.68C197.31 41.224 197.19 41.704 196.95 42.12C196.726 42.536 196.398 42.864 195.966 43.104C195.55 43.328 195.062 43.44 194.502 43.44C193.734 43.44 193.15 43.2 192.75 42.72C192.35 42.24 192.15 41.56 192.15 40.68ZM202.839 26.28V45H204.759V26.28H202.839ZM206.69 33.96V35.76H212.21V33.96H206.69ZM208.49 30.12V45H210.41V30.12H208.49Z" fill="white"/>
<g clip-path="url(#clip0_11_8)">
<path fill-rule="evenodd" clip-rule="evenodd" d="M24 60.1348C37.2397 60.1348 48 49.2924 48 35.9169C48.0075 32.1019 47.1212 28.3392 45.4137 24.9366C43.7062 21.534 41.2259 18.588 38.1755 16.3395C36 31.4578 31.1344 46.789 23.8446 60.1278L24 60.1348ZM33.7019 13.7122C29.5232 11.8649 24.9121 11.2515 20.4027 11.9431C15.8933 12.6347 11.67 14.603 8.22216 17.62L8.9128 18.0788C11.5165 19.7606 14.8489 21.6325 18.2573 22.5396C17.2194 21.5488 16.5655 20.2163 16.4132 18.7819C16.2607 17.2101 16.7325 15.6416 17.7246 14.4212C18.7167 13.2009 20.148 12.4288 21.7036 12.2747C23.2592 12.1206 24.8116 12.5972 26.0194 13.5997C27.2272 14.6021 27.9914 16.0483 28.1439 17.62C28.2283 18.3872 28.1595 19.1638 27.9415 19.9036C27.7235 20.6435 27.3608 21.3317 26.8748 21.9273C29.8981 20.3084 32.1047 17.1019 33.7053 13.7105L33.7019 13.7122ZM6.25726 19.6071C3.5084 22.6541 1.57464 26.3595 0.639016 30.3725C-0.296602 34.3856 -0.203117 38.5735 0.910624 42.5399C2.02436 46.5063 4.12151 50.1198 7.00354 53.0385C9.88558 55.9572 13.4571 58.0845 17.3801 59.2189C18.0155 44.7391 17.5321 32.8325 6.95136 20.4008L6.25726 19.6071Z" fill="white"/>
<path fill-rule="evenodd" clip-rule="evenodd" d="M38.9922 0L39.5966 4.73298L44.2515 5.58955L39.9902 7.66557L40.6239 12.4003L37.3606 8.91816L33.0993 10.9942L35.3663 6.81074L32.0702 3.32861L36.7252 4.21484L38.9922 0Z" fill="white"/>
<path fill-rule="evenodd" clip-rule="evenodd" d="M8.10129 19.3942C24.2124 29.7167 32.343 24.1272 37.5125 8.15405C35.6978 31.5189 27.5361 52.0418 18.5888 66C19.4659 48.2247 20.6745 34.1758 8.10129 19.3942ZM21.8538 13.8343C22.7126 13.7459 23.578 13.9173 24.3403 14.3265C25.1026 14.7358 25.7275 15.3646 26.1356 16.1332C26.5437 16.9018 26.7167 17.7755 26.6327 18.6435C26.5487 19.5116 26.2114 20.3349 25.6636 21.009C25.1158 21.6831 24.3822 22.1777 23.5559 22.43C22.7296 22.6822 21.8477 22.6809 21.0221 22.426C20.1965 22.1712 19.4645 21.6744 18.9187 20.9986C18.373 20.3228 18.0382 19.4984 17.9568 18.6301C17.847 17.4726 18.1953 16.3182 18.9256 15.4194C19.6559 14.5207 20.7087 13.9508 21.8538 13.8343Z" fill="white"/>
</g>
<defs>
<clipPath id="clip0_11_8">
<rect width="48" height="66" fill="white"/>
</clipPath>
</defs>
</svg>
