<svg width="25" height="25" viewBox="0 0 25 25" fill="none" xmlns="http://www.w3.org/2000/svg">
<path d="M5.8024 8.21484C5.50474 6.25234 6.89068 4.48515 9.00787 3.83672C9.38378 3.72166 9.78943 3.75436 10.1421 3.92813C10.4947 4.10191 10.7678 4.40368 10.9055 4.77187L11.5844 6.58437C11.6936 6.87593 11.7132 7.19344 11.6406 7.4962C11.5681 7.79895 11.4068 8.07313 11.1774 8.28359L9.15787 10.1359C9.05827 10.2274 8.98405 10.3432 8.94243 10.4719C8.90081 10.6005 8.89321 10.7378 8.92037 10.8703L8.93834 10.9516L8.98834 11.1555C9.03287 11.3273 9.10006 11.5695 9.19459 11.8586C9.38209 12.4328 9.6813 13.2047 10.1266 13.9758C10.5719 14.7469 11.0907 15.3922 11.4938 15.8414C11.7038 16.0753 11.9232 16.3005 12.1516 16.5164L12.2141 16.5742C12.3151 16.6637 12.4376 16.7255 12.5696 16.7535C12.7016 16.7816 12.8386 16.775 12.9672 16.7344L15.5813 15.9117C15.8783 15.8184 16.1964 15.8158 16.4949 15.9045C16.7933 15.9932 17.0585 16.169 17.2563 16.4094L18.493 17.9109C19.0086 18.5359 18.9477 19.4547 18.3547 20.007C16.7344 21.5172 14.5063 21.8273 12.9563 20.5805C11.0564 19.0481 9.45475 17.1792 8.23131 15.0672C6.99775 12.9565 6.17369 10.632 5.8024 8.21562V8.21484ZM10.5571 10.9727L12.2336 9.43515C12.6925 9.01424 13.0151 8.46587 13.1601 7.86036C13.3052 7.25486 13.266 6.61983 13.0477 6.03672L12.368 4.22422C12.0907 3.48369 11.5415 2.87679 10.8322 2.52723C10.1229 2.17768 9.30702 2.11178 8.55084 2.34297C5.92193 3.14765 3.81099 5.50469 4.25787 8.44922C4.65865 11.0602 5.54843 13.5721 6.88052 15.8531C8.20011 18.1307 9.92758 20.1461 11.9766 21.7984C14.3008 23.6656 17.4055 23.0289 19.4204 21.15C19.9969 20.6127 20.3467 19.8757 20.3985 19.0893C20.4504 18.3029 20.2003 17.5263 19.6993 16.918L18.4626 15.4164C18.0668 14.9355 17.5364 14.5838 16.9393 14.4064C16.3423 14.2291 15.7059 14.2342 15.1118 14.4211L12.9422 15.1039C12.8451 15.004 12.7501 14.9022 12.6571 14.7984C12.2112 14.3052 11.8167 13.7677 11.4797 13.1945C11.1517 12.616 10.8834 12.0055 10.679 11.3727C10.6356 11.2402 10.595 11.1068 10.5571 10.9727Z" fill="white"/>
</svg>
