<svg width="70" height="70" viewBox="0 0 70 70" fill="none" xmlns="http://www.w3.org/2000/svg">
<mask id="mask0_205_346" style="mask-type:alpha" maskUnits="userSpaceOnUse" x="0" y="0" width="70" height="70">
<circle cx="35" cy="35" r="35" fill="url(#paint0_linear_205_346)"/>
</mask>
<g mask="url(#mask0_205_346)">
</g>
<g clip-path="url(#clip0_205_346)">
<path d="M42.4819 61H28.5677C28.1501 61 27.7365 60.9177 27.3507 60.7578C26.9648 60.5979 26.6142 60.3635 26.3189 60.068C26.0235 59.7726 25.7893 59.4218 25.6295 59.0357C25.4696 58.6497 25.3874 58.2359 25.3874 57.818C25.3871 57.377 25.4799 56.9408 25.6597 56.5381C25.8395 56.1354 26.1023 55.7753 26.4309 55.4813C26.1031 55.1845 25.8408 54.8224 25.6611 54.4183C25.4814 54.0142 25.3881 53.5769 25.3874 53.1345C25.3751 52.6905 25.4574 52.249 25.6288 51.8393C25.8001 51.4296 26.0566 51.061 26.3812 50.758C25.904 50.3278 25.5686 49.7627 25.4195 49.1376C25.2704 48.5124 25.3146 47.8567 25.5463 47.2573C25.778 46.6578 26.1862 46.1429 26.7169 45.7808C27.2475 45.4186 27.8757 45.2263 28.518 45.2293H42.4819C43.1243 45.2263 43.7524 45.4186 44.2831 45.7808C44.8138 46.1429 45.222 46.6578 45.4537 47.2573C45.6853 47.8567 45.7296 48.5124 45.5805 49.1376C45.4313 49.7627 45.096 50.3278 44.6187 50.758C44.9468 51.0545 45.2091 51.4165 45.3886 51.8207C45.5681 52.225 45.6609 52.6624 45.6609 53.1047C45.6609 53.547 45.5681 53.9844 45.3886 54.3887C45.2091 54.7929 44.9468 55.155 44.6187 55.4514C45.0923 55.8824 45.4244 56.4466 45.5714 57.07C45.7183 57.6934 45.6732 58.3467 45.4419 58.944C45.2107 59.5412 44.8042 60.0544 44.2758 60.4161C43.7475 60.7778 43.1221 60.9709 42.4819 60.9702V61ZM28.5677 46.9098C28.1609 46.9124 27.7716 47.0759 27.4849 47.3647C27.1981 47.6535 27.0372 48.044 27.0372 48.451C27.0338 48.837 27.1781 49.2096 27.4405 49.4924C27.7029 49.7753 28.0636 49.9471 28.4485 49.9724C28.6504 49.9947 28.837 50.0907 28.9725 50.2421C29.108 50.3935 29.183 50.5896 29.183 50.7928C29.183 50.996 29.108 51.1921 28.9725 51.3435C28.837 51.4949 28.6504 51.5909 28.4485 51.6131C28.0452 51.6131 27.6584 51.7734 27.3732 52.0588C27.0881 52.3441 26.9279 52.731 26.9279 53.1345C26.9279 53.538 27.0881 53.925 27.3732 54.2103C27.6584 54.4956 28.0452 54.6559 28.4485 54.6559C28.6504 54.6782 28.837 54.7742 28.9725 54.9256C29.108 55.077 29.183 55.2731 29.183 55.4763C29.183 55.6795 29.108 55.8756 28.9725 56.027C28.837 56.1783 28.6504 56.2744 28.4485 56.2966C28.0644 56.3243 27.7052 56.4968 27.4432 56.7791C27.1813 57.0615 27.0362 57.4328 27.0372 57.818C27.0372 58.2251 27.1981 58.6156 27.4849 58.9044C27.7716 59.1931 28.1609 59.3567 28.5677 59.3593H42.4819C42.8887 59.3567 43.278 59.1931 43.5648 58.9044C43.8515 58.6156 44.0124 58.2251 44.0124 57.818C44.0134 57.4328 43.8683 57.0615 43.6064 56.7791C43.3444 56.4968 42.9852 56.3243 42.6011 56.2966C42.3992 56.2744 42.2127 56.1783 42.0771 56.027C41.9416 55.8756 41.8666 55.6795 41.8666 55.4763C41.8666 55.2731 41.9416 55.077 42.0771 54.9256C42.2127 54.7742 42.3992 54.6782 42.6011 54.6559C43.0044 54.6559 43.3912 54.4956 43.6764 54.2103C43.9616 53.925 44.1218 53.538 44.1218 53.1345C44.1218 52.731 43.9616 52.3441 43.6764 52.0588C43.3912 51.7734 43.0044 51.6131 42.6011 51.6131C42.3992 51.5909 42.2127 51.4949 42.0771 51.3435C41.9416 51.1921 41.8666 50.996 41.8666 50.7928C41.8666 50.5896 41.9416 50.3935 42.0771 50.2421C42.2127 50.0907 42.3992 49.9947 42.6011 49.9724C42.9852 49.9447 43.3444 49.7723 43.6064 49.4899C43.8683 49.2076 44.0134 48.8363 44.0124 48.451C44.0124 48.044 43.8515 47.6535 43.5648 47.3647C43.278 47.0759 42.8887 46.9124 42.4819 46.9098H28.5677Z" fill="white"/>
<path d="M28.1503 46.9496C28.0192 46.9494 27.8899 46.9188 27.7727 46.8601C24.3823 45.1246 21.6742 42.2983 20.0842 38.8361C18.4941 35.3738 18.1146 31.477 19.0067 27.7728C19.8989 24.0686 22.0107 20.7724 25.0024 18.4148C27.9941 16.0571 31.6917 14.7751 35.5 14.7751C39.3083 14.7751 43.0059 16.0571 45.9976 18.4148C48.9893 20.7724 51.1011 24.0686 51.9933 27.7728C52.8854 31.477 52.5059 35.3738 50.9158 38.8361C49.3258 42.2983 46.6177 45.1246 43.2273 46.8601C43.0711 46.9398 42.8936 46.9677 42.7204 46.9396H42.4819H28.5678H28.3292L28.1503 46.9496ZM28.5181 45.2691H42.7006C45.7157 43.6621 48.1073 41.0927 49.495 37.9694C50.8827 34.8461 51.1869 31.3483 50.3591 28.0322C49.5314 24.7161 47.6193 21.772 44.9268 19.6682C42.2344 17.5644 38.9162 16.4217 35.5 16.4217C32.0838 16.4217 28.7656 17.5644 26.0732 19.6682C23.3807 21.772 21.4686 24.7161 20.6409 28.0322C19.8131 31.3483 20.1173 34.8461 21.505 37.9694C22.8927 41.0927 25.2843 43.6621 28.2994 45.2691H28.5181Z" fill="white"/>
<path d="M38.9934 51.6132H28.3391C28.2239 51.6259 28.1072 51.6142 27.9968 51.5788C27.8864 51.5433 27.7847 51.485 27.6983 51.4076C27.612 51.3302 27.5429 51.2354 27.4956 51.1295C27.4483 51.0236 27.4238 50.9089 27.4238 50.7929C27.4238 50.6768 27.4483 50.5621 27.4956 50.4562C27.5429 50.3503 27.612 50.2555 27.6983 50.1781C27.7847 50.1007 27.8864 50.0424 27.9968 50.007C28.1072 49.9715 28.2239 49.9598 28.3391 49.9725H38.9934C39.1087 49.9598 39.2253 49.9715 39.3357 50.007C39.4461 50.0424 39.5479 50.1007 39.6342 50.1781C39.7206 50.2555 39.7897 50.3503 39.837 50.4562C39.8843 50.5621 39.9087 50.6768 39.9087 50.7929C39.9087 50.9089 39.8843 51.0236 39.837 51.1295C39.7897 51.2354 39.7206 51.3302 39.6342 51.4076C39.5479 51.485 39.4461 51.5433 39.3357 51.5788C39.2253 51.6142 39.1087 51.6259 38.9934 51.6132V51.6132Z" fill="white"/>
<path d="M32.7917 56.2966H28.3391C28.2239 56.3093 28.1072 56.2975 27.9968 56.2621C27.8864 56.2267 27.7847 56.1684 27.6983 56.091C27.612 56.0135 27.5429 55.9188 27.4956 55.8129C27.4483 55.7069 27.4238 55.5922 27.4238 55.4762C27.4238 55.3602 27.4483 55.2455 27.4956 55.1396C27.5429 55.0336 27.612 54.9389 27.6983 54.8615C27.7847 54.7841 27.8864 54.7257 27.9968 54.6903C28.1072 54.6549 28.2239 54.6431 28.3391 54.6559H32.7917C32.9069 54.6431 33.0236 54.6549 33.134 54.6903C33.2444 54.7257 33.3461 54.7841 33.4325 54.8615C33.5189 54.9389 33.5879 55.0336 33.6352 55.1396C33.6825 55.2455 33.707 55.3602 33.707 55.4762C33.707 55.5922 33.6825 55.7069 33.6352 55.8129C33.5879 55.9188 33.5189 56.0135 33.4325 56.091C33.3461 56.1684 33.2444 56.2267 33.134 56.2621C33.0236 56.2975 32.9069 56.3093 32.7917 56.2966V56.2966Z" fill="white"/>
<path d="M42.6609 56.2966H37.453C37.2511 56.2743 37.0645 56.1783 36.929 56.0269C36.7934 55.8755 36.7185 55.6794 36.7185 55.4762C36.7185 55.273 36.7934 55.0769 36.929 54.9255C37.0645 54.7741 37.2511 54.6781 37.453 54.6559H42.6609C42.7761 54.6431 42.8928 54.6549 43.0032 54.6903C43.1136 54.7257 43.2153 54.7841 43.3017 54.8615C43.3881 54.9389 43.4571 55.0336 43.5044 55.1396C43.5517 55.2455 43.5762 55.3602 43.5762 55.4762C43.5762 55.5922 43.5517 55.7069 43.5044 55.8129C43.4571 55.9188 43.3881 56.0135 43.3017 56.091C43.2153 56.1684 43.1136 56.2267 43.0032 56.2621C42.8928 56.2975 42.7761 56.3093 42.6609 56.2966V56.2966Z" fill="white"/>
<path d="M31.0027 41.4208C30.8137 41.4203 30.6306 41.3548 30.484 41.2353C30.3375 41.1158 30.2364 40.9497 30.1977 40.7645L27.9515 29.6176C27.9232 29.4739 27.9336 29.3253 27.9816 29.1869C28.0297 29.0486 28.1136 28.9255 28.2249 28.8304C28.3362 28.7352 28.4708 28.6714 28.6149 28.6455C28.759 28.6196 28.9073 28.6325 29.0448 28.6829L32.6028 29.9756L35.1273 28.7127C35.2423 28.6587 35.3679 28.6306 35.495 28.6306C35.6221 28.6306 35.7477 28.6587 35.8627 28.7127L38.3971 29.9756L41.9551 28.6829C42.1015 28.6298 42.2602 28.6203 42.412 28.6556C42.5637 28.6909 42.7019 28.7695 42.8098 28.8818C42.9191 28.978 43.0014 29.1011 43.0485 29.2389C43.0955 29.3767 43.1058 29.5244 43.0782 29.6673L40.8221 40.8143C40.8022 40.9235 40.7603 41.0275 40.6988 41.12C40.6373 41.2124 40.5575 41.2913 40.4645 41.3518C40.3714 41.4123 40.267 41.4532 40.1576 41.4719C40.0482 41.4906 39.9361 41.4868 39.8282 41.4606C39.7197 41.4394 39.6165 41.3966 39.5249 41.3347C39.4332 41.2728 39.3549 41.1931 39.2947 41.1004C39.2344 41.0076 39.1934 40.9036 39.1741 40.7947C39.1548 40.6858 39.1575 40.5741 39.1822 40.4662L41.17 30.7612L38.6555 31.676C38.5535 31.72 38.4436 31.7428 38.3325 31.7428C38.2214 31.7428 38.1115 31.72 38.0095 31.676L35.5248 30.443L33.0501 31.676C32.9487 31.7225 32.8385 31.7465 32.7271 31.7465C32.6156 31.7465 32.5054 31.7225 32.4041 31.676L29.8896 30.7313L31.8773 40.4364C31.902 40.5442 31.9048 40.6559 31.8855 40.7649C31.8661 40.8738 31.8251 40.9778 31.7649 41.0705C31.7046 41.1633 31.6263 41.243 31.5347 41.3049C31.443 41.3667 31.3398 41.4096 31.2313 41.4308L31.0027 41.4208Z" fill="white"/>
<path d="M35.495 12.9717C35.2779 12.9691 35.0707 12.881 34.9181 12.7265C34.7655 12.572 34.68 12.3636 34.68 12.1464V8.82521C34.6673 8.70989 34.679 8.59319 34.7145 8.48272C34.7499 8.37224 34.8082 8.27048 34.8855 8.18407C34.9629 8.09765 35.0576 8.02853 35.1635 7.98121C35.2693 7.93388 35.384 7.90942 35.5 7.90942C35.6159 7.90942 35.7306 7.93388 35.8364 7.98121C35.9423 8.02853 36.037 8.09765 36.1144 8.18407C36.1918 8.27048 36.2501 8.37224 36.2855 8.48272C36.3209 8.59319 36.3326 8.70989 36.3199 8.82521V12.1066C36.3253 12.2183 36.3079 12.3299 36.2689 12.4347C36.2299 12.5395 36.17 12.6352 36.0928 12.7161C36.0157 12.797 35.9229 12.8614 35.8201 12.9053C35.7174 12.9493 35.6067 12.9719 35.495 12.9717V12.9717Z" fill="white"/>
<path d="M43.8037 14.7817C43.6835 14.7803 43.5649 14.7531 43.4559 14.7021C43.2586 14.6094 43.1061 14.4422 43.0316 14.2373C42.9571 14.0323 42.9667 13.8062 43.0583 13.6083L44.4398 10.6252C44.4855 10.5266 44.5501 10.438 44.6301 10.3644C44.71 10.2908 44.8036 10.2337 44.9056 10.1963C45.0075 10.1589 45.1159 10.142 45.2244 10.1465C45.3329 10.151 45.4395 10.1768 45.538 10.2225C45.6366 10.2682 45.7252 10.3329 45.7987 10.4128C45.8723 10.4928 45.9294 10.5865 45.9667 10.6885C46.0041 10.7905 46.021 10.8989 46.0166 11.0075C46.0121 11.1161 45.9862 11.2227 45.9406 11.3213L44.5491 14.3044C44.4831 14.4466 44.3778 14.567 44.2458 14.6515C44.1138 14.736 43.9605 14.7812 43.8037 14.7817V14.7817Z" fill="white"/>
<path d="M50.6217 19.9821C50.454 19.98 50.291 19.9269 50.1543 19.8298C50.0176 19.7326 49.9137 19.5961 49.8565 19.4385C49.7993 19.2808 49.7915 19.1094 49.8341 18.9472C49.8767 18.7849 49.9677 18.6395 50.0949 18.5303L52.6094 16.4223C52.6906 16.3421 52.7876 16.2796 52.8942 16.2388C53.0008 16.198 53.1147 16.1798 53.2286 16.1853C53.3426 16.1908 53.4542 16.2199 53.5564 16.2708C53.6586 16.3216 53.7491 16.3931 53.8222 16.4808C53.8953 16.5685 53.9495 16.6703 53.9812 16.78C54.013 16.8897 54.0216 17.0047 54.0067 17.1179C53.9917 17.2311 53.9534 17.34 53.8943 17.4376C53.8351 17.5352 53.7563 17.6195 53.6629 17.6851L51.1584 19.7932C51.0067 19.9163 50.817 19.9831 50.6217 19.9821Z" fill="white"/>
<path d="M54.5673 27.5693C54.3875 27.5705 54.2126 27.5113 54.0703 27.4014C53.928 27.2915 53.8265 27.1371 53.7822 26.9628C53.7302 26.7546 53.7613 26.5343 53.8689 26.3487C53.9765 26.163 54.1522 26.0266 54.3586 25.9684L57.529 25.1232C57.7347 25.0814 57.9486 25.1197 58.1271 25.2302C58.3056 25.3406 58.4353 25.515 58.4897 25.7178C58.5442 25.9206 58.5194 26.1365 58.4203 26.3217C58.3212 26.5068 58.1553 26.6471 57.9564 26.7142L54.786 27.5594C54.7139 27.573 54.6403 27.5764 54.5673 27.5693V27.5693Z" fill="white"/>
<path d="M58.1751 36.6876H58.0359L54.8058 36.1208C54.6953 36.1018 54.5897 36.0607 54.4953 36C54.401 35.9393 54.3199 35.8601 54.2568 35.7673C54.1937 35.6745 54.15 35.5699 54.1282 35.4598C54.1064 35.3497 54.107 35.2363 54.13 35.1265C54.1489 35.0161 54.19 34.9107 54.2508 34.8168C54.3117 34.7228 54.391 34.6422 54.484 34.5799C54.577 34.5175 54.6816 34.4748 54.7916 34.4542C54.9017 34.4337 55.0147 34.4357 55.1239 34.4602L58.354 35.027C58.4645 35.046 58.5701 35.0871 58.6645 35.1479C58.7588 35.2086 58.8399 35.2878 58.903 35.3806C58.9661 35.4734 59.0098 35.578 59.0316 35.6881C59.0534 35.7982 59.0528 35.9115 59.0298 36.0214C58.988 36.2151 58.8795 36.3879 58.7232 36.5097C58.567 36.6314 58.373 36.6944 58.1751 36.6876V36.6876Z" fill="white"/>
<path d="M54.3586 45.8955C54.1913 45.895 54.0282 45.8429 53.8915 45.7464L51.1981 43.867C51.1094 43.8017 51.0344 43.7196 50.9773 43.6253C50.9203 43.531 50.8824 43.4264 50.8658 43.3174C50.8322 43.0974 50.8874 42.873 51.0192 42.6937C51.0845 42.6049 51.1666 42.5298 51.2609 42.4728C51.3551 42.4157 51.4597 42.3778 51.5686 42.3612C51.7885 42.3276 52.0128 42.3828 52.192 42.5147L54.8854 44.404C55.0252 44.5062 55.1293 44.6499 55.1829 44.8146C55.2365 44.9794 55.237 45.1568 55.1842 45.3218C55.1315 45.4868 55.0281 45.631 54.8889 45.734C54.7496 45.837 54.5815 45.8935 54.4083 45.8955H54.3586Z" fill="white"/>
<path d="M27.1565 14.7815C26.9997 14.781 26.8464 14.7359 26.7144 14.6513C26.5824 14.5668 26.4771 14.4464 26.4111 14.3042L25.0196 11.3211C24.928 11.1232 24.9184 10.8971 24.9929 10.6921C25.0674 10.4872 25.2199 10.3201 25.4172 10.2273C25.5147 10.1791 25.6209 10.1512 25.7294 10.1453C25.8379 10.1393 25.9466 10.1554 26.0487 10.1925C26.1509 10.2297 26.2445 10.2872 26.3238 10.3615C26.4032 10.4359 26.4667 10.5255 26.5104 10.625L27.9019 13.6082C27.9935 13.806 28.0031 14.0322 27.9286 14.2371C27.8541 14.4421 27.7016 14.6092 27.5043 14.702C27.3946 14.7508 27.2765 14.7778 27.1565 14.7815V14.7815Z" fill="white"/>
<path d="M20.3683 19.9821C20.1762 19.9816 19.9902 19.9149 19.8416 19.7932L17.3271 17.6851C17.1597 17.544 17.0552 17.3422 17.0366 17.124C17.0179 16.9058 17.0867 16.6892 17.2277 16.5217C17.3687 16.3542 17.5705 16.2497 17.7885 16.231C18.0066 16.2124 18.2232 16.2812 18.3905 16.4223L20.9448 18.5303C21.1099 18.6728 21.2128 18.8744 21.2314 19.0918C21.25 19.3092 21.1828 19.5253 21.0442 19.6937C20.9605 19.7896 20.8562 19.8654 20.7392 19.9153C20.6222 19.9652 20.4954 19.9881 20.3683 19.9821V19.9821Z" fill="white"/>
<path d="M16.4227 27.5692C16.3534 27.5789 16.2832 27.5789 16.214 27.5692L13.0435 26.6941C12.8446 26.6271 12.6787 26.4868 12.5797 26.3016C12.4806 26.1165 12.4557 25.9006 12.5102 25.6978C12.5647 25.495 12.6944 25.3206 12.8728 25.2101C13.0513 25.0997 13.2652 25.0614 13.4709 25.1032L16.6413 25.9484C16.8478 26.0066 17.0234 26.143 17.131 26.3286C17.2386 26.5143 17.2697 26.7345 17.2178 26.9427C17.1752 27.1215 17.0735 27.2807 16.9292 27.3944C16.7849 27.5081 16.6064 27.5697 16.4227 27.5692V27.5692Z" fill="white"/>
<path d="M12.8249 36.6877C12.6151 36.6937 12.4109 36.6195 12.2539 36.4801C12.0968 36.3407 11.9988 36.1466 11.9798 35.9375C11.9608 35.7283 12.0222 35.5197 12.1516 35.3543C12.2809 35.1889 12.4684 35.079 12.6759 35.047L15.9059 34.4802C16.1132 34.4587 16.3209 34.5165 16.4874 34.642C16.6538 34.7675 16.7666 34.9513 16.8031 35.1566C16.8396 35.3619 16.7971 35.5733 16.6841 35.7485C16.5712 35.9237 16.3961 36.0497 16.1942 36.1011L12.9939 36.6678L12.8249 36.6877Z" fill="white"/>
<path d="M16.6413 45.8955C16.4682 45.8935 16.3001 45.837 16.1608 45.734C16.0215 45.631 15.9182 45.4868 15.8654 45.3218C15.8126 45.1568 15.8131 44.9793 15.8667 44.8146C15.9204 44.6499 16.0245 44.5062 16.1643 44.404L18.8477 42.5147C19.0288 42.3911 19.2512 42.3437 19.4669 42.3827C19.6826 42.4218 19.8743 42.5442 20.0006 42.7235C20.0628 42.812 20.1068 42.912 20.13 43.0177C20.1532 43.1233 20.1551 43.2326 20.1357 43.339C20.1162 43.4454 20.0758 43.5469 20.0168 43.6376C19.9578 43.7282 19.8813 43.8062 19.7919 43.867L17.1084 45.7861C16.9672 45.8687 16.8045 45.9068 16.6413 45.8955Z" fill="white"/>
<path d="M54.3388 60.9999H16.6613C16.546 61.0126 16.4294 61.0009 16.319 60.9655C16.2086 60.93 16.1068 60.8717 16.0205 60.7943C15.9341 60.7169 15.865 60.6222 15.8177 60.5162C15.7704 60.4103 15.746 60.2956 15.746 60.1796C15.746 60.0636 15.7704 59.9488 15.8177 59.8429C15.865 59.737 15.9341 59.6422 16.0205 59.5648C16.1068 59.4874 16.2086 59.4291 16.319 59.3937C16.4294 59.3582 16.546 59.3465 16.6613 59.3592H54.3388C54.5407 59.3815 54.7273 59.4775 54.8628 59.6289C54.9984 59.7803 55.0733 59.9763 55.0733 60.1796C55.0733 60.3828 54.9984 60.5789 54.8628 60.7303C54.7273 60.8816 54.5407 60.9777 54.3388 60.9999V60.9999Z" fill="white"/>
</g>
<defs>
<linearGradient id="paint0_linear_205_346" x1="0" y1="35" x2="70" y2="35" gradientUnits="userSpaceOnUse">
<stop stop-color="#673AB7"/>
<stop offset="1" stop-color="#512DA8"/>
</linearGradient>
<clipPath id="clip0_205_346">
<rect width="47" height="53" fill="white" transform="translate(12 8)"/>
</clipPath>
</defs>
</svg>
