<svg width="70" height="70" viewBox="0 0 70 70" fill="none" xmlns="http://www.w3.org/2000/svg">
<mask id="mask0_205_370" style="mask-type:alpha" maskUnits="userSpaceOnUse" x="0" y="0" width="70" height="70">
<circle cx="35" cy="35" r="35" fill="url(#paint0_linear_205_370)"/>
</mask>
<g mask="url(#mask0_205_370)">
</g>
<g clip-path="url(#clip0_205_370)">
<path d="M59.3075 37.3064C58.5413 37.3066 57.7937 37.0744 57.1674 36.6416C56.541 36.2088 56.0665 35.5967 55.8089 34.8891L51.5028 22.8345C51.1744 21.9316 51.2245 20.9378 51.6423 20.0711C52.06 19.2044 52.8112 18.5355 53.7312 18.2111C54.183 18.0545 54.6618 17.9869 55.1403 18.0123C55.6188 18.0376 56.0874 18.1554 56.5194 18.3589C56.9635 18.5681 57.3601 18.8628 57.6856 19.2255C58.0112 19.5882 58.2589 20.0114 58.414 20.47L62.72 32.5246C63.0478 33.4317 62.9949 34.4293 62.5731 35.2982C62.1512 36.1671 61.3948 36.8362 60.4701 37.1586C60.0928 37.267 59.7005 37.3169 59.3075 37.3064ZM55.0015 19.7522C54.7851 19.7503 54.57 19.786 54.3663 19.8578C54.1288 19.9353 53.9091 20.058 53.7199 20.2188C53.5307 20.3796 53.3757 20.5754 53.2637 20.795C53.1518 21.0146 53.085 21.2537 53.0673 21.4986C53.0496 21.7435 53.0814 21.9894 53.1606 22.2223L57.4667 34.2769C57.6374 34.7456 57.9898 35.1293 58.4473 35.3448C58.9048 35.5602 59.4306 35.5899 59.9104 35.4275C60.3805 35.2528 60.7654 34.9094 60.9869 34.4669C61.2051 34.0171 61.2322 33.5007 61.0622 33.0313L56.7562 20.9767C56.5865 20.5141 56.2387 20.1351 55.7873 19.9211C55.5293 19.8105 55.2508 19.753 54.9692 19.7522H55.0015Z" fill="white"/>
<path d="M27.4537 35.0052C26.9431 35.0056 26.4404 34.8811 25.9913 34.6428C25.5422 34.4046 25.1608 34.0602 24.8818 33.6408C24.6027 33.2215 24.4349 32.7405 24.3933 32.2414C24.3518 31.7424 24.438 31.2411 24.644 30.7829L27.6475 24.0484L28.3472 22.6867C28.8566 21.6964 29.6956 20.9064 30.7254 20.4476C31.7552 19.9888 32.9139 19.8887 34.0097 20.1639L38.8109 21.3989C39.5645 21.5467 40.3718 21.7367 41.1469 21.9056C41.922 22.0745 42.7724 22.275 43.526 22.4228C45.2512 22.7516 47.0383 22.5335 48.6287 21.8L51.4599 20.5017C51.5733 20.4519 51.6962 20.4261 51.8205 20.4261C51.9448 20.4261 52.0677 20.4519 52.1811 20.5017C52.297 20.5475 52.4013 20.6175 52.4868 20.7068C52.5723 20.7961 52.637 20.9026 52.6763 21.0189L57.1223 33.3691C57.1822 33.5805 57.1591 33.8062 57.0574 34.0017C56.9557 34.1972 56.783 34.3481 56.5733 34.4247C56.3591 34.4892 56.1277 34.4704 55.9273 34.3721C55.7268 34.2738 55.5727 34.1037 55.4968 33.8969L51.363 22.4967L49.4145 23.3939C47.4833 24.2903 45.3092 24.5531 43.2138 24.1434C42.4387 23.9956 41.6206 23.8162 40.7809 23.6262C39.9412 23.4362 39.2307 23.2778 38.4341 23.1089L33.5898 21.8739C32.8907 21.6946 32.15 21.7561 31.4916 22.0482C30.8332 22.3402 30.297 22.8451 29.9728 23.4784L29.2946 24.7979L26.3126 31.4902C26.2359 31.656 26.1962 31.8359 26.1962 32.018C26.1962 32.2 26.2359 32.38 26.3126 32.5458C26.3784 32.7043 26.4777 32.8473 26.6038 32.9656C26.73 33.0838 26.8802 33.1746 27.0447 33.2319C27.3202 33.3185 27.6177 33.3103 27.8879 33.2085C28.158 33.1068 28.3846 32.9177 28.5302 32.6724L32.1042 27.1834C32.2353 26.9964 32.4353 26.8665 32.6621 26.8211C32.8888 26.7757 33.1247 26.8184 33.3201 26.9402C33.5154 27.0619 33.6549 27.2532 33.7093 27.4739C33.7636 27.6945 33.7285 27.9272 33.6114 28.1229L30.0804 33.6224C29.7971 34.0515 29.4077 34.4033 28.9484 34.6451C28.4892 34.8868 27.975 35.0107 27.4537 35.0052V35.0052Z" fill="white"/>
<path d="M10.6925 38.4676C10.2743 38.4643 9.85958 38.393 9.46524 38.2565C8.5431 37.934 7.78873 37.2665 7.3671 36.4001C6.94548 35.5337 6.89091 34.5388 7.21534 33.6331L11.5214 21.5784C11.6825 21.1279 11.9326 20.7129 12.2573 20.3572C12.582 20.0014 12.975 19.7119 13.4139 19.5051C13.8527 19.2983 14.3288 19.1782 14.815 19.1518C15.3011 19.1254 15.7878 19.1931 16.2472 19.3512C16.7067 19.5092 17.1299 19.7544 17.4927 20.0728C17.8555 20.3912 18.1508 20.7766 18.3617 21.2069C18.5726 21.6372 18.6951 22.104 18.722 22.5807C18.7489 23.0574 18.6798 23.5346 18.5187 23.9851L14.2126 36.0398C13.9584 36.7545 13.482 37.3731 12.8506 37.8086C12.2191 38.2441 11.4644 38.4745 10.6925 38.4676V38.4676ZM14.9985 20.9029C14.6078 20.9122 14.229 21.0371 13.912 21.2613C13.595 21.4855 13.3546 21.7984 13.2223 22.159L8.91622 34.2136C8.81231 34.4501 8.75909 34.7051 8.75987 34.9626C8.76064 35.2201 8.8154 35.4747 8.92072 35.7106C9.02605 35.9465 9.17971 36.1586 9.37215 36.3339C9.5646 36.5091 9.79173 36.6437 10.0394 36.7292C10.2871 36.8148 10.5501 36.8495 10.8121 36.8312C11.0741 36.8129 11.3294 36.742 11.5622 36.6229C11.7951 36.5039 12.0005 36.3391 12.1657 36.1389C12.3309 35.9387 12.4523 35.7074 12.5225 35.4592L16.8286 23.4046C16.9977 22.9356 16.9703 22.42 16.7524 21.9708C16.5344 21.5217 16.1437 21.1756 15.6659 21.0084C15.4608 20.9422 15.2467 20.9066 15.0308 20.9029H14.9985Z" fill="white"/>
<path d="M41.782 50.5222C41.2454 50.5189 40.7162 50.3999 40.2318 50.1738L37.0023 48.6749C36.7937 48.5722 36.6344 48.3936 36.5584 48.1772C36.4825 47.9609 36.4958 47.724 36.5957 47.5172C36.6955 47.3103 36.8739 47.15 37.0927 47.0705C37.3115 46.9909 37.5534 46.9985 37.7666 47.0916L40.9961 48.5905C41.4244 48.813 41.9252 48.8597 42.3886 48.7201C42.8519 48.5805 43.2397 48.2662 43.4667 47.8463C43.6937 47.4264 43.7412 46.9352 43.5989 46.4809C43.4566 46.0266 43.136 45.6463 42.7077 45.4238C42.546 45.3324 42.4175 45.1937 42.3403 45.0271C42.2631 44.8605 42.241 44.6744 42.2771 44.4949C42.3125 44.3141 42.4056 44.1492 42.5431 44.0239C42.6805 43.8986 42.8551 43.8196 43.0415 43.7982H43.1168C43.2857 43.7742 43.4581 43.7999 43.612 43.8721C44.0249 44.0748 44.5006 44.117 44.9439 43.9902C45.3872 43.8634 45.7652 43.577 46.0021 43.1884C46.2391 42.7998 46.3175 42.3378 46.2216 41.8949C46.1257 41.452 45.8627 41.061 45.4851 40.8003C45.3034 40.6744 45.1776 40.4851 45.1336 40.2712C45.0895 40.0573 45.1306 39.835 45.2483 39.6498V39.5759C45.359 39.4047 45.5267 39.2764 45.723 39.2129C45.9193 39.1494 46.132 39.1545 46.3248 39.2275C46.7491 39.3961 47.224 39.3942 47.647 39.2224C48.0699 39.0506 48.407 38.7226 48.5855 38.3092C48.7611 37.9608 48.8151 37.5655 48.7392 37.1841C48.6634 36.8027 48.4619 36.4562 48.1657 36.198C48.0889 36.1049 48.0023 36.02 47.9073 35.9447L36.3779 30.5824C36.1693 30.4797 36.01 30.3011 35.9341 30.0847C35.8581 29.8684 35.8714 29.6315 35.9713 29.4246C36.0711 29.2178 36.2495 29.0575 36.4683 28.978C36.6871 28.8984 36.929 28.906 37.1422 28.999L48.7147 34.393C48.9388 34.4968 49.1486 34.628 49.339 34.7836H49.4036C50.0095 35.2904 50.4253 35.981 50.5852 36.7459C50.7452 37.5109 50.64 38.3062 50.2864 39.0059C50.052 39.4974 49.7061 39.9299 49.2751 40.2702C48.8441 40.6105 48.3394 40.8496 47.7996 40.9692C47.9794 41.4456 48.0523 41.9544 48.0135 42.4609C47.9747 42.9674 47.8251 43.4598 47.5748 43.9045C47.3246 44.3492 46.9795 44.7358 46.5632 45.0381C46.1469 45.3403 45.669 45.5511 45.1622 45.656C45.3391 46.1031 45.4208 46.581 45.4023 47.0603C45.3837 47.5395 45.2654 48.01 45.0545 48.4427C44.7665 49.0581 44.3058 49.5804 43.7263 49.9486C43.1468 50.3168 42.4725 50.5158 41.782 50.5222V50.5222Z" fill="white"/>
<path d="M37.4329 48.7595C37.2824 48.7623 37.1338 48.7259 37.0023 48.6539L32.1042 46.0044C32.0016 45.9483 31.9114 45.873 31.8386 45.7826C31.7657 45.6923 31.7118 45.5888 31.6798 45.478C31.6478 45.3673 31.6384 45.2514 31.6521 45.137C31.6658 45.0227 31.7024 44.9121 31.7597 44.8116C31.8159 44.7114 31.8917 44.6232 31.9828 44.5519C32.074 44.4806 32.1786 44.4277 32.2907 44.3963C32.4028 44.3649 32.5202 44.3556 32.636 44.3689C32.7518 44.3822 32.8637 44.4179 32.9654 44.4738L37.8635 47.1233C38.0333 47.2188 38.1665 47.3663 38.2425 47.5432C38.3186 47.72 38.3332 47.9165 38.2843 48.1024C38.2354 48.2882 38.1256 48.4532 37.9718 48.5719C37.818 48.6906 37.6286 48.7565 37.4329 48.7595V48.7595Z" fill="white"/>
<path d="M43.1492 45.5504C43.0057 45.5515 42.8645 45.515 42.7401 45.4448L34.9139 41.4653C34.7103 41.3542 34.5591 41.1694 34.4924 40.9505C34.4258 40.7315 34.449 40.4957 34.5571 40.2933C34.6652 40.0909 34.8497 39.938 35.0712 39.867C35.2927 39.7961 35.5337 39.8128 35.7428 39.9136L43.6013 43.8931C43.7061 43.9456 43.7993 44.0179 43.8756 44.1058C43.9518 44.1937 44.0096 44.2954 44.0456 44.4053C44.0816 44.5151 44.0951 44.6309 44.0854 44.7459C44.0757 44.8609 44.0429 44.9728 43.9889 45.0754C43.9083 45.2237 43.7869 45.3469 43.6385 45.4309C43.49 45.5148 43.3205 45.5563 43.1492 45.5504Z" fill="white"/>
<path d="M46.045 40.9058C45.9015 40.9069 45.7603 40.8705 45.6359 40.8003L38.8216 37.3169C38.618 37.2057 38.4668 37.021 38.4001 36.802C38.3335 36.5831 38.3567 36.3473 38.4648 36.1449C38.5729 35.9425 38.7574 35.7895 38.9789 35.7186C39.2004 35.6476 39.4414 35.6644 39.6505 35.7652L46.4648 39.2486C46.6707 39.3602 46.8241 39.5462 46.8924 39.7669C46.9607 39.9876 46.9387 40.2258 46.8308 40.4308C46.7564 40.5726 46.6438 40.6918 46.5053 40.7755C46.3668 40.8593 46.2077 40.9043 46.045 40.9058V40.9058Z" fill="white"/>
<path d="M35.5598 52C35.0432 51.9989 34.5354 51.8681 34.085 51.62L25.1822 46.5638C23.0046 45.242 20.9639 43.7147 19.0892 42.0037C18.6155 41.5604 18.1849 41.0854 17.7759 40.6209C17.0968 39.7319 16.2396 38.9883 15.2568 38.4359L12.7055 37.3276C12.5096 37.2376 12.3537 37.0811 12.2666 36.887C12.1795 36.6928 12.1671 36.4743 12.2318 36.272L16.6886 23.8584C16.7297 23.7433 16.7949 23.6378 16.8799 23.5488C16.965 23.4598 17.0681 23.3892 17.1826 23.3415C17.2971 23.2938 17.4205 23.27 17.5449 23.2718C17.6693 23.2736 17.792 23.3008 17.905 23.3518L21.7697 25.104C23.5107 25.8163 25.4233 26.0251 27.2814 25.7057C27.506 25.6829 27.7309 25.7443 27.9112 25.8774C28.0915 26.0106 28.2137 26.2058 28.2532 26.4237C28.2927 26.6416 28.2467 26.8661 28.1243 27.0521C28.002 27.2381 27.8124 27.3718 27.5936 27.4263C25.3675 27.8144 23.0742 27.5576 20.9946 26.6874L18.0342 25.389L14.1803 36.0503L15.9996 36.842C17.2177 37.497 18.2814 38.3961 19.1215 39.4809C19.5306 39.9243 19.9074 40.357 20.3164 40.7476C22.1018 42.3649 24.0412 43.8106 26.108 45.0649L34.9892 50.1C35.1231 50.1876 35.2742 50.2467 35.4328 50.2735C35.5913 50.3003 35.7539 50.2942 35.9099 50.2557C36.066 50.2171 36.212 50.147 36.3387 50.0497C36.4654 49.9524 36.5699 49.8302 36.6455 49.6909C36.7211 49.5515 36.766 49.3983 36.7775 49.2409C36.7889 49.0835 36.7666 48.9255 36.712 48.7771C36.6574 48.6287 36.5717 48.4931 36.4604 48.3792C36.3491 48.2652 36.2146 48.1754 36.0658 48.1155L33.9127 47.0599C33.8046 47.0024 33.7091 46.9246 33.6316 46.8308C33.5541 46.7371 33.4963 46.6293 33.4613 46.5137C33.4263 46.398 33.4149 46.2767 33.4277 46.1567C33.4405 46.0367 33.4773 45.9204 33.536 45.8144C33.5946 45.7083 33.674 45.6146 33.7696 45.5387C33.8652 45.4627 33.9751 45.406 34.0931 45.3717C34.211 45.3374 34.3347 45.3262 34.4571 45.3387C34.5794 45.3513 34.6981 45.3874 34.8062 45.4449L36.9593 46.5533C37.5378 46.8552 37.9969 47.3381 38.2635 47.9252C38.53 48.5123 38.5888 49.1699 38.4304 49.7936C38.272 50.4172 37.9056 50.971 37.3894 51.367C36.8731 51.7629 36.2367 51.9783 35.5813 51.9789L35.5598 52Z" fill="white"/>
<path d="M16.7531 39.217C16.6326 39.2031 16.5158 39.1673 16.4086 39.1115C16.2128 39.0215 16.0568 38.865 15.9697 38.6709C15.8826 38.4768 15.8703 38.2583 15.935 38.0559L17.2698 34.8892C17.3157 34.783 17.3824 34.6868 17.4662 34.606C17.55 34.5251 17.6492 34.4613 17.7582 34.4182C17.8672 34.375 17.9839 34.3534 18.1014 34.3545C18.2189 34.3557 18.3351 34.3795 18.4432 34.4247C18.5511 34.4686 18.649 34.5329 18.7313 34.6141C18.8137 34.6953 18.8787 34.7917 18.9228 34.8978C18.9668 35.0038 18.989 35.1174 18.988 35.2318C18.987 35.3463 18.9628 35.4595 18.9169 35.5647L17.582 38.6892C17.5121 38.8474 17.3962 38.9819 17.2488 39.0758C17.1013 39.1696 16.9289 39.2188 16.7531 39.217V39.217Z" fill="white"/>
<path d="M46.045 27.7217C45.8351 27.721 45.6325 27.646 45.4745 27.5106C43.9028 26.2017 44.398 23.5839 44.398 23.2883C44.4628 23.081 44.6037 22.9046 44.7935 22.7932C44.9833 22.6819 45.2084 22.6435 45.4254 22.6856C45.6424 22.7276 45.8357 22.847 45.9681 23.0207C46.1004 23.1945 46.1624 23.4102 46.1419 23.6261C46.045 24.1117 45.9158 25.6317 46.5725 26.1806C46.7523 26.3318 46.8635 26.5468 46.8817 26.7784C46.8999 27.01 46.8235 27.2392 46.6694 27.4156C46.592 27.5056 46.4967 27.5791 46.3894 27.6317C46.282 27.6844 46.1649 27.715 46.045 27.7217V27.7217Z" fill="white"/>
<path d="M49.479 39.5653C49.2824 39.5646 49.0914 39.5003 48.9358 39.3824C48.7802 39.2645 48.6686 39.0996 48.6183 38.9132C48.568 38.7268 48.5819 38.5293 48.6577 38.3514C48.7335 38.1735 48.867 38.025 49.0376 37.9291L56.2072 33.8335C56.4094 33.7409 56.6397 33.7259 56.8527 33.7914C57.0657 33.8569 57.2459 33.9982 57.358 34.1875C57.47 34.3768 57.5057 34.6004 57.4581 34.8142C57.4105 35.0281 57.283 35.2167 57.1007 35.343L49.9311 39.4386C49.7931 39.5162 49.638 39.5597 49.479 39.5653V39.5653Z" fill="white"/>
</g>
<defs>
<linearGradient id="paint0_linear_205_370" x1="0" y1="35" x2="70" y2="35" gradientUnits="userSpaceOnUse">
<stop stop-color="#673AB7"/>
<stop offset="1" stop-color="#512DA8"/>
</linearGradient>
<clipPath id="clip0_205_370">
<rect width="56" height="34" fill="white" transform="translate(7 18)"/>
</clipPath>
</defs>
</svg>
