<svg width="25" height="25" viewBox="0 0 25 25" fill="none" xmlns="http://www.w3.org/2000/svg">
<path d="M12.36 24.72C19.1862 24.72 24.72 19.1862 24.72 12.36C24.72 5.53376 19.1862 0 12.36 0C5.53376 0 0 5.53376 0 12.36C0 19.1862 5.53376 24.72 12.36 24.72Z" fill="#1BA5D4"/>
<path fill-rule="evenodd" clip-rule="evenodd" d="M10.11 16C9.50664 15.9888 8.92173 15.7902 8.43621 15.4319C7.95069 15.0736 7.58856 14.5732 7.39996 14C7.81178 14.0899 8.23815 14.0899 8.64996 14C8.26101 13.9186 7.89277 13.7586 7.56779 13.5299C7.2428 13.3012 6.96792 13.0086 6.75996 12.67C6.47163 12.2054 6.32562 11.6666 6.33997 11.12C6.73541 11.3391 7.17801 11.4592 7.62996 11.47C7.02075 11.0561 6.59118 10.4265 6.42786 9.70829C6.26455 8.99009 6.37966 8.23668 6.74997 7.6C7.48584 8.4905 8.39971 9.21737 9.43296 9.734C10.4662 10.2506 11.596 10.5456 12.75 10.6C12.75 10.49 12.75 10.38 12.75 10.28C12.6703 9.60883 12.8335 8.93131 13.21 8.37C13.4436 8.0025 13.7567 7.69213 14.1262 7.46174C14.4958 7.23136 14.9123 7.08685 15.3451 7.03887C15.7779 6.99089 16.216 7.04065 16.627 7.1845C17.038 7.32834 17.4115 7.5626 17.72 7.87C17.7443 7.88404 17.7719 7.89144 17.8 7.89144C17.8281 7.89144 17.8556 7.88404 17.88 7.87C18.4739 7.74839 19.0445 7.53231 19.57 7.23C19.3499 7.88871 18.9081 8.45066 18.32 8.82C18.8777 8.74895 19.4229 8.60087 19.94 8.38L19.61 8.82C19.3018 9.19816 18.9454 9.53435 18.55 9.82C18.55 9.82 18.55 9.87 18.55 9.91C18.5687 10.3406 18.5519 10.7721 18.5 11.2C18.3928 12.0984 18.1395 12.9733 17.75 13.79C17.3573 14.6351 16.8267 15.409 16.18 16.08C15.1025 17.2103 13.7079 17.9878 12.18 18.31C10.0313 18.7717 7.78742 18.3924 5.90997 17.25H5.83997C6.59895 17.3329 7.36684 17.2652 8.09959 17.0507C8.83234 16.8362 9.51553 16.4791 10.11 16Z" fill="white"/>
</svg>
